<?xml version="1.0" encoding="utf-8"?>
<!-- Generator: Adobe Illustrator 24.1.2, SVG Export Plug-In . SVG Version: 6.00 Build 0)  -->
<svg version="1.1" id="Camada_1" xmlns="http://www.w3.org/2000/svg" xmlns:xlink="http://www.w3.org/1999/xlink" x="0px" y="0px"
	 viewBox="0 0 554 674" style="enable-background:new 0 0 554 674;" xml:space="preserve">
<style type="text/css">
	.st0{fill:#1B1B56;}
	.st1{fill-rule:evenodd;clip-rule:evenodd;fill:#FFF7F9;}
	.st2{fill-rule:evenodd;clip-rule:evenodd;fill:#F5C2E1;}
	.st3{fill-rule:evenodd;clip-rule:evenodd;fill:#FF92CD;}
	.st4{fill-rule:evenodd;clip-rule:evenodd;fill:#FFDBEE;}
	.st5{fill-rule:evenodd;clip-rule:evenodd;fill:#FFD152;}
	.st6{fill-rule:evenodd;clip-rule:evenodd;fill:#F8CFDD;}
	.st7{fill-rule:evenodd;clip-rule:evenodd;fill:#080838;}
	.st8{fill-rule:evenodd;clip-rule:evenodd;fill:#6CDCF2;}
	.st9{fill-rule:evenodd;clip-rule:evenodd;fill:#FFEFF4;}
	.st10{fill-rule:evenodd;clip-rule:evenodd;fill:#F3C888;}
	.st11{fill-rule:evenodd;clip-rule:evenodd;fill:#F9BD70;}
	.st12{fill-rule:evenodd;clip-rule:evenodd;fill:#FFE7A4;}
	.st13{fill-rule:evenodd;clip-rule:evenodd;fill:#F2F3F5;}
	.st14{fill-rule:evenodd;clip-rule:evenodd;fill:#FEDAC6;}
	.st15{fill-rule:evenodd;clip-rule:evenodd;fill:#86604F;}
	.st16{fill-rule:evenodd;clip-rule:evenodd;fill:#CCA18F;}
	.st17{fill-rule:evenodd;clip-rule:evenodd;fill:#DDF4E4;}
	.st18{fill-rule:evenodd;clip-rule:evenodd;fill:#28E7B1;}
	.st19{fill-rule:evenodd;clip-rule:evenodd;fill:#EBC6B6;}
	.st20{fill-rule:evenodd;clip-rule:evenodd;fill:#FFF2E1;}
</style>
<path class="st0" d="M130,674c54.21,0,98.16-9.92,98.16-22.15c0-12.23-43.95-22.15-98.16-22.15c-54.21,0-98.16,9.92-98.16,22.15
	C31.84,664.08,75.79,674,130,674z"/>
<path class="st0" d="M228.31,340.66c45.4,0,82.2-8.52,82.2-19.03s-36.8-19.03-82.2-19.03c-45.4,0-82.2,8.52-82.2,19.03
	S182.92,340.66,228.31,340.66z"/>
<path class="st0" d="M403.63,571.18c68.1,0,123.3-12.66,123.3-28.28s-55.2-28.28-123.3-28.28c-68.1,0-123.3,12.66-123.3,28.28
	S335.54,571.18,403.63,571.18z"/>
<path class="st1" d="M266.2,91.49c-1.17,1.74-2.08,3.33-3.22,4.74c-1.31,1.61-2.67,3.24-4.27,4.52c-3.52,2.81-7.52,3.38-11.71,1.65
	c-5.33-2.2-9.18-5.96-11.32-11.41c-0.39-1.01-0.75-2.03-1.25-3.38c-0.96,1-1.71,1.75-2.43,2.52c-2.46,2.63-5.24,4.8-8.66,6
	c-1.14,0.4-2.34,0.67-3.54,0.87c-3.9,0.65-6.28-1.7-7.41-4.13c-0.4-0.88-0.7-1.8-1.02-2.63c-0.94-0.34-1.16,0.4-1.53,0.8
	c-1.93,2.05-3.72,4.24-5.77,6.15c-2.17,2.03-4.74,3.47-7.7,4.02c-0.72,0.13-1.45,0.26-2.18,0.29c-4.35,0.2-6.82-1.51-8.68-6.18
	c-0.38,0.73-0.78,1.26-0.95,1.85c-1.77,5.93-2.52,11.98-2.5,18.2c0.05,11.94,3.97,22.68,9.68,32.9c1.43,2.57,2.96,5.11,4.67,7.5
	c6.49,9.07,15.31,15.07,25.5,19.09c2.91,1.15,6.02,1.95,9.12,2.41c3.96,0.6,8,0.95,12.01,0.99c12.31,0.11,23.9-2.78,34.67-8.92
	c5.89-3.36,11.29-7.37,15.88-12.33c6.93-7.5,12.83-15.75,16.31-25.53c0.37-1.04,0.65-2.1,0.93-3.17c0.04-0.18-0.16-0.42-0.34-0.87
	c-0.63,0.12-1.34,0.18-2,0.38c-2.07,0.63-3.92,0.09-5.45-1.28c-1.36-1.21-2.64-2.56-3.71-4.04c-2.74-3.79-4.97-7.88-6.89-12.16
	c-0.48-1.07-0.61-2.4-1.97-3.2c-0.59,0.77-1.08,1.67-1.8,2.29c-1.01,0.86-2.12,1.65-3.3,2.23c-2.05,1.01-4.04,0.62-5.86-0.71
	c-1.8-1.33-3.18-3.05-4.35-4.95c-2.51-4.07-4.96-8.19-7.45-12.28C267.29,92.99,266.79,92.34,266.2,91.49z M231.94,143.61
	c-0.02,0-0.03,0-0.05,0.01c0.11,1.47,0.1,2.96,0.35,4.41c0.43,2.47,3.37,5.16,5.81,5.51c3.75,0.54,7.74-2.01,8.65-5.71
	c0.34-1.4,0.28-2.9,0.41-4.36c0.07-0.78,0.33-1.44,1.18-1.65c0.79-0.19,1.71,0.41,1.93,1.3c0.13,0.47,0.2,0.97,0.21,1.46
	c0.24,5.75-2.66,9.91-8.12,11.7c-5.13,1.68-10.96-1.1-12.84-6.21c-1.23-3.33-0.87-6.79-0.42-10.21c0.09-0.71,1.08-1.41,1.63-1.14
	c0.49,0.24,1.09,0.76,1.17,1.23C232.01,141.14,231.92,142.39,231.94,143.61z M263.83,134.43c-0.23-2.82,1.48-4.62,4.66-4.9
	c3.05-0.27,5.39,1.59,5.58,4.44c0.18,2.69-1.82,5.08-4.43,5.32C266.72,139.54,264.06,137.31,263.83,134.43z M210.12,122.43
	c-0.25-2.04,0.66-3.92,2.25-4.65c2.71-1.23,6.55,0.44,7.55,3.28c0.7,2.01-0.18,4.41-2,5.44
	C214.84,128.25,210.55,126.01,210.12,122.43z"/>
<path class="st2" d="M292.36,72.78c-3.33,0.68-5.87-0.42-8.15-2.22c-2.31-1.81-4.52-3.76-6.8-5.61c-0.95-0.77-1.9-1.55-2.93-2.19
	c-0.92-0.57-1.91-0.9-3.07-0.97c-1.8-0.12-3.61-0.56-5.36-1.06c-2.03-0.59-3.87-1.55-4.62-3.48c-4.19-0.76-8.14-1.47-12.1-2.2
	c-2.53-0.46-5.07-0.57-7.64-0.59c-12.24-0.09-23.33,3.65-33.44,10.35c-8.63,5.72-15.2,13.4-19.82,22.76
	c-0.46,0.93-0.6,1.82-0.3,2.84c0.45,1.53,0.75,3.1,1.2,4.63c0.69,2.33,1.83,3.18,4.21,3.21c2,0.02,3.95-0.35,5.58-1.49
	c1.89-1.32,3.77-2.74,5.37-4.4c2.29-2.38,4.38-4.96,5.91-7.95c0.27-0.53,0.66-1.03,1.09-1.45c0.46-0.46,1.67-0.22,1.95,0.37
	c0.26,0.55,0.45,1.14,0.56,1.73c0.31,1.7,0.47,3.42,0.88,5.09c0.75,3.11,2.67,4.25,5.72,3.46c4.99-1.3,8.58-4.53,11.41-8.7
	c0.75-1.11,1.31-2.36,1.97-3.54c0.24-0.42,0.5-0.84,0.83-1.18c0.58-0.6,1.9-0.27,2.13,0.54c0.19,0.7,0.21,1.45,0.33,2.17
	c0.28,1.7,0.46,3.42,0.87,5.08c1.36,5.39,4.73,9.1,9.73,11.26c3.29,1.42,6.45,0.99,9.26-1.34c2.89-2.4,4.81-5.52,6.42-8.88
	c0.37-0.77,0.65-1.6,1.1-2.32c0.52-0.85,1.93-0.91,2.56-0.13c0.53,0.67,0.93,1.44,1.37,2.18c2.96,4.95,5.87,9.94,8.9,14.85
	c0.89,1.45,1.99,2.81,3.19,4.02c1.53,1.56,3.17,1.55,4.92,0.23c1.42-1.07,2.21-2.6,2.98-4.14c0.49-0.98,0.91-2.03,1.5-2.95
	c0.67-1.03,2.19-0.8,2.65,0.35c0.22,0.57,0.34,1.18,0.51,1.77c1.8,6.76,5.26,12.68,9.16,18.39c0.34,0.5,0.77,0.95,1.19,1.4
	c2.29,2.38,5.22,2.57,7.82,0.5c0.87-0.69,0.99-1.67,1.03-2.66c0.16-4.19,0.14-8.38-0.61-12.52c-1.54-8.5-5.03-16.21-9.95-23.21
	C298.98,80.71,295.65,76.92,292.36,72.78z"/>
<path class="st3" d="M249.94,181.36c-8.22,0.31-16.13,0.11-23.96-1.76c-1.93,3.03-3.06,6.28-4.47,9.39
	c-7.25,16.03-13.53,32.42-17.95,49.47c1.2,2.39,3.43,3.21,5.61,3.93c6.3,2.09,12.74,3.27,19.44,2.85c6.33-0.4,12.72-0.39,18.89-2.05
	c5.77-1.55,11.47-3.33,17.16-5.18c1.6-0.52,3.07-1.5,4.52-2.38c1.11-0.67,1.27-1.39,0.74-2.48c-0.26-0.56-0.59-1.07-0.9-1.6
	c-4.52-7.79-7.93-16.1-10.95-24.56c-2.65-7.41-5.17-14.87-7.04-22.54C250.78,183.51,250.38,182.61,249.94,181.36z"/>
<path class="st4" d="M280.59,250.27c-1.2-2.59-5.46-9.14-8.18-12.58c-0.46,0.22-1,0.41-1.48,0.71c-2.7,1.7-5.61,2.93-8.64,3.92
	c-7.42,2.44-14.88,4.74-22.7,5.45c-6.19,0.56-12.4,1.03-18.6,0.51c-5.86-0.48-11.51-1.97-16.82-4.6c-0.52-0.26-1.09-0.4-1.79-0.64
	c-1.52,4.34-1.83,8.55-1.22,12.86c0.19,1.35,0.92,2.31,2.1,2.8c1.34,0.56,2.73,1.07,4.15,1.38c5.86,1.26,11.79,1.85,17.79,1.58
	c4.63-0.2,9.25-0.5,13.87-0.78c9.3-0.55,18.32-2.66,27.2-5.35c4.19-1.27,8.29-2.83,12.43-4.3
	C279.36,251.02,279.97,250.6,280.59,250.27z"/>
<path class="st2" d="M266.95,45.99c2.37,0.65,4.81,1.32,7.44,2.04c6.25-4.66,12-9.89,15.79-16.98c2.75-5.12,3.1-10.55,1.38-16.09
	c-0.36-1.14-0.98-2.24-1.66-3.25c-0.7-1.06-1.94-1.15-2.82-0.2c-0.91,0.98-1.78,2.05-2.42,3.21c-1,1.82-1.79,3.77-2.66,5.66
	c-0.36,0.78-0.6,1.64-1.1,2.31c-0.3,0.4-1.06,0.75-1.53,0.66c-0.47-0.08-1.01-0.67-1.22-1.17c-0.28-0.66-0.23-1.45-0.38-2.17
	c-0.56-2.65-1.09-5.29-1.71-7.92c-0.34-1.44-0.97-2.78-2.24-4.04c-0.37,0.48-0.84,0.85-0.99,1.32c-0.46,1.53-0.79,3.09-1.17,4.63
	c-0.14,0.59-0.19,1.24-0.48,1.75c-0.21,0.38-0.75,0.84-1.1,0.82c-0.53-0.03-1.31-0.32-1.51-0.74c-0.6-1.2-0.92-2.53-1.42-3.78
	c-0.26-0.63-0.67-1.19-1.12-1.96c-1.16,2.04-1.16,4.04-1.38,5.95c-0.22,1.95-0.29,3.94-0.23,5.9
	C264.7,29.95,265.3,37.92,266.95,45.99z"/>
<path class="st1" d="M326.75,188.78c-0.51-1.8-1.74-2.44-2.85-3.18c-0.61-0.4-1.29-0.7-1.86-1.15c-0.82-0.65-0.66-2.04,0.29-2.47
	c0.77-0.34,1.62-0.52,2.42-0.8c0.91-0.31,1.85-0.61,2.73-1.01c0.73-0.33,1.13-0.94,0.91-1.79c-0.2-0.78-0.69-1.34-1.48-1.45
	c-0.59-0.08-1.2,0.06-1.8,0.06c-0.76,0-1.45-0.19-1.78-1c-0.3-0.74,0.04-1.51,0.95-2.16c0.3-0.21,0.65-0.35,0.95-0.56
	c2.62-1.84,3-3.04,2.1-6.77c-1.48-0.35-2.8,0.41-4.08,0.96c-2.02,0.86-3.93,1.96-5.91,2.89c-0.93,0.44-1.55,1.11-2.08,1.98
	c-0.4,0.66-1.06,1.02-1.87,0.79c-0.8-0.23-1.21-0.89-1.28-1.63c-0.07-0.7,0.17-1.42,0.18-2.14c0.01-1.09,0.05-2.2-0.13-3.27
	c-0.17-1-0.89-1.72-1.8-2.2c-1.1-0.57-2.25-0.21-2.72,0.95c-0.28,0.67-0.52,1.39-0.6,2.11c-0.28,2.56-0.49,5.13-0.69,7.7
	c-0.06,0.85,0.12,1.74-0.02,2.58c-0.77,4.7,0.4,9.01,2.46,13.15c2.11,4.25,5.52,6.11,10.47,5.78c0.89-1.42,0.19-2.82-0.16-4.21
	c-0.18-0.7-0.59-1.35-0.76-2.06c-0.26-1.04,0.76-2.01,1.75-1.69c0.68,0.23,1.31,0.65,1.99,0.9
	C323.6,189.72,325.11,189.74,326.75,188.78z"/>
<path class="st1" d="M303.42,150.43c1.25,0.3,1.95,0.63,2.65,0.61c5.36-0.19,10.49-1.3,14.45-5.23c4.27-4.23,6.13-9.4,4.67-15.47
	c-0.74-3.05-2.85-4.8-5.82-5.46c-2.36-0.53-4.07,0.47-4.86,2.75c-0.52,1.51-0.92,3.06-1.44,4.57c-1.87,5.37-4.52,10.34-7.65,15.06
	C304.83,148.17,304.27,149.09,303.42,150.43z"/>
<path class="st1" d="M164.78,143.35c-1.26,0.22-1.53,1.07-1.55,1.93c-0.03,1.47,0.07,2.94,0.19,4.41c0.17,2.06-0.05,2.96-0.98,3.15
	c-1.39,0.28-1.85-0.83-2.48-1.74c-0.62-0.89-1.29-1.78-2.07-2.53c-0.51-0.48-1.33-0.88-1.97-0.28c-0.38,0.36-0.68,1.1-0.6,1.6
	c0.19,1.19,0.6,2.35,0.99,3.51c0.19,0.58,0.69,1.09,0.74,1.65c0.04,0.52-0.17,1.28-0.55,1.57c-0.37,0.29-1.23,0.34-1.62,0.09
	c-1.12-0.72-2.06-1.78-3.55-1.6c-0.56,0.06-1.09,0.29-1.53,0.41c-0.25,0.99,0.27,1.38,0.74,1.71c0.49,0.34,1.1,0.52,1.62,0.83
	c1.52,0.89,1.58,2.23,0.15,3.11c-0.62,0.38-1.32,0.64-1.91,1.05c-0.48,0.34-0.84,0.82-1.46,1.45c0.6,0.45,0.99,0.91,1.49,1.1
	c2.55,0.96,5.21,1.13,7.91,0.96c1.45-0.09,2.89-0.19,4.34-0.14c2.96,0.1,5.55-0.61,7.4-3.13c1.81-2.46,3.67-4.88,5.41-7.39
	c0.77-1.1,1.29-2.4,1.12-3.81c-0.05-0.44-0.34-1.08-0.66-1.19c-0.49-0.17-1.34-0.2-1.64,0.1c-1.01,1.04-1.87,2.22-2.73,3.4
	c-0.64,0.88-1.08,2.09-2.47,1.68c-1.14-0.34-1.14-1.46-1.25-2.43c-0.3-2.69-0.72-5.36-1.91-7.83
	C165.64,144.37,165.14,143.85,164.78,143.35z"/>
<path class="st1" d="M179.31,124.4c-0.09-1.86-0.12-3.08-0.2-4.29c-0.52-6.8-0.12-13.52,1.4-20.16c0.08-0.36,0.16-0.72,0.28-1.07
	c0.85-2.64-0.61-4.52-2.59-5.94c-1.63-1.18-4.54-1.24-6.44,0.51c-2.36,2.17-3.81,4.77-3.87,8.04c-0.15,7.48,2.62,13.92,7.09,19.7
	c0.59,0.76,1.39,1.37,2.15,1.98C177.56,123.54,178.13,123.75,179.31,124.4z"/>
<path class="st3" d="M160.48,263.2c-0.72,1.86-0.53,3.61,0.14,5.17c2.48,5.82,6.28,10.47,12.02,13.32c0.21,0.1,0.47,0.08,0.83,0.15
	c0.86-1.05,1.22-2.26,0.73-3.63c-1.71-4.8-4.04-9.23-7.94-12.6c-1.17-1.01-2.65-1.7-4.06-2.39
	C161.75,262.98,161.07,263.19,160.48,263.2z"/>
<path class="st3" d="M267.29,301.4c-0.59,1.39-1.27,2.81-1.8,4.29c-0.95,2.65-1.81,5.33-2.69,8.01c-0.47,1.42-0.62,2.87-0.24,4.35
	c0.27,1.03,1.24,1.56,2.25,1.24c1.22-0.38,2.12-1.19,2.86-2.18c2.52-3.36,3.61-7.14,3.44-11.36
	C271.01,303.29,269.98,301.81,267.29,301.4z"/>
<path class="st5" d="M262.28,53.57c1.49-1.72,1.73-3.35,1.56-5.15c-0.24-2.6-0.92-5.07-1.74-7.53c-1.45-4.36-3.47-8.41-6.23-12.06
	c-1.09-1.45-2.42-2.78-3.87-3.87c-1.79-1.35-3.39-0.87-4.62,1.07c-1.43,2.25-1.93,4.81-2.01,7.39c-0.17,5.05,0.21,10.09,0.92,15.09
	c0.2,1.44,0.74,2.55,2.3,2.97C253.07,52.68,257.57,53.69,262.28,53.57z"/>
<path class="st5" d="M275.8,59.46c3.21,2.67,6.37,5.34,9.59,7.96c0.85,0.69,1.79,1.3,2.77,1.78c1.81,0.9,3.26,0.47,4.47-1.17
	c0.29-0.39,0.51-0.84,0.74-1.27c2.72-5.11,4.96-10.43,6.69-15.95c0.54-1.74,1.14-3.52,0.25-5.31c-1.22-0.76-2.45-0.39-3.64-0.26
	c-3.46,0.37-15.11,3.57-18.58,5.1c-0.32,1.36-0.68,2.9-1.07,4.44C276.64,56.3,276.23,57.83,275.8,59.46z"/>
<path class="st5" d="M265.09,56.63c1.87,1.24,3.52,1.65,5.22,1.83c1.58,0.16,2.36-0.25,2.85-1.69c0.43-1.26,0.66-2.6,0.96-3.83
	c-1.5-2.11-3.53-2.77-5.83-3.15C266.62,51.76,266.45,54.31,265.09,56.63z"/>
<path class="st6" d="M281.43,135.8c6.54-0.04,11.53,5.88,10.95,12.28c-0.26,2.87-1.63,5.24-3.62,6.87
	c-1.68,1.68-3.96,2.81-6.21,3.17c-5.22,0.82-9.98-4.39-11.05-9.1C270.07,142.66,274.7,135.84,281.43,135.8z"/>
<path class="st6" d="M187.39,129.68c0.03-1.08,0.24-2.06,0.59-2.97c0.9-4.89,5.23-8.25,10.23-8.03c5.56,0.25,11.18,3.81,11.29,9.98
	c0.13,6.68-6.26,11.48-12.53,10.84C192.37,139.06,187.25,134.67,187.39,129.68z"/>
<path class="st7" d="M254.22,183.62c2.17,0.6,3.37,1.83,4.66,2.94c3.73,3.2,7.59,6.17,11.92,8.53c3.41,1.86,7,2.87,10.85,2.91
	c7.8,0.07,15.33-1.03,22.15-5.21c0.51-0.3,1.06-0.52,1.68-0.82c0.68,0.87,1.23,1.66,1.87,2.38c2.72,3.04,5.97,5.07,10.14,5.22
	c0.61,0.02,1.23,0.04,1.83-0.04c2.32-0.33,3.48-1.51,3.71-3.84c0.07-0.73,0-1.47,0-2.41c0.66-0.15,1.34-0.32,2.02-0.47
	c0.59-0.13,1.2-0.23,1.78-0.41c3.64-1.14,4.4-3.23,2.36-6.38c-0.4-0.62-0.89-1.16-1.45-1.89c0.6-0.44,1.15-0.91,1.75-1.28
	c2.41-1.53,2.7-3.2,1.78-6.07c-0.29-0.91-0.96-1.69-1.55-2.69c0.3-0.8,0.7-1.69,0.98-2.62c0.55-1.81,0.48-3.66,0.07-5.48
	c-0.45-1.98-1.66-2.9-3.68-2.86c-2,0.04-3.81,0.78-5.59,1.61c-1.66,0.76-3.29,1.58-4.83,2.32c-1.31-0.46-1.18-1.63-1.56-2.47
	c-0.91-2.02-2.3-3.45-4.47-4.04c-2.55-0.69-4.64,0.17-5.74,2.61c-0.55,1.21-0.99,2.56-1.11,3.88c-0.35,3.79-0.66,7.6-0.71,11.41
	c-0.04,3.42,0.29,6.84,0.48,10.55c-3.38,2.62-7.4,4.29-11.79,4.92c-3.25,0.47-6.55,0.65-9.84,0.82c-2.97,0.15-5.79-0.6-8.48-1.92
	c-4.33-2.11-8.09-5.04-11.79-8.07c-1.5-1.23-2.86-2.62-4.47-4.11c1.32-0.9,2.96-0.78,4.37-1.31c1.48-0.54,3.05-0.86,4.56-1.36
	c1.62-0.53,3.23-1.12,4.8-1.77c1.46-0.6,2.91-1.26,4.34-1.96c1.42-0.7,2.83-1.44,4.22-2.22c1.38-0.78,2.75-1.6,4.07-2.47
	c1.33-0.87,2.63-1.79,3.89-2.76c1.27-0.96,2.51-1.95,3.71-3.01c1.29-1.13,2.54-2.3,3.77-3.5c1.14-1.12,2.25-2.26,3.31-3.44
	c1.06-1.17,2.05-2.42,3.01-3.56c7.96,2.17,14.98,0.37,20.99-4.7c5.2-4.39,7.3-10.34,6.51-17.19c-0.7-6.06-5.14-9.88-11.25-9.82
	c-0.47,0.01-0.94-0.01-1.67-0.01c-0.05-0.67-0.16-1.24-0.13-1.82c0.72-10.38-1.88-19.99-6.57-29.15
	c-3.22-6.29-7.38-11.89-12.1-17.09c-0.66-0.72-1.3-1.45-2.1-2.33c0.39-0.87,0.72-1.77,1.16-2.6c2.52-4.8,4.7-9.74,6.42-14.88
	c0.54-1.63,0.99-3.29,1.34-4.98c0.19-0.95,0.21-1.97,0.08-2.93c-0.32-2.45-1.61-3.73-4.09-3.95c-1.2-0.11-2.46-0.05-3.64,0.19
	c-3.46,0.72-6.89,1.57-10.34,2.36c-0.46,0.1-0.93,0.15-1.89,0.29c0.68-0.89,1.09-1.43,1.51-1.96c2.12-2.69,4.47-5.24,6.34-8.1
	c4.32-6.57,5.06-13.73,2.6-21.19c-0.49-1.48-1.33-2.94-2.31-4.14c-1.98-2.41-4.8-2.49-7.04-0.31c-1.04,1.02-1.89,2.25-2.77,3.42
	c-0.51,0.67-0.91,1.42-1.53,2.42c-0.41-0.58-0.75-0.9-0.88-1.28c-0.45-1.27-0.7-2.63-1.26-3.85c-0.61-1.33-1.32-2.67-2.24-3.78
	c-1.94-2.32-3.99-2.13-5.66,0.36c-0.4,0.6-0.71,1.27-1.19,2.12c-0.54-0.58-0.91-1.02-1.32-1.39c-1.94-1.7-3.91-1.32-5,1.04
	c-0.51,1.1-0.95,2.31-1.1,3.51c-0.38,3.17-0.72,6.35-0.81,9.55c-0.07,2.57,0.26,5.17,0.4,7.74c0.03,0.56,0,1.12,0,2.4
	c-0.95-1.23-1.44-1.87-1.94-2.51c-1.21-1.55-2.35-3.16-3.65-4.6c-0.81-0.89-1.82-1.66-2.87-2.26c-2.95-1.7-6.07-1-8.08,1.75
	c-2.03,2.78-2.75,6.01-2.9,9.38c-0.27,5.55,0.02,11.08,1.04,16.55c0.07,0.35,0.01,0.72,0.02,1.3c-0.69,0.11-1.38,0.33-2.06,0.32
	c-13.01-0.06-24.72,4.18-35.39,11.34c-7.41,4.96-13.36,11.48-17.88,19.24c-1.54,2.65-2.77,5.47-4.16,8.22
	c-0.38,0.74-0.78,1.47-1.24,2.31c-0.73-0.6-1.27-1.07-1.84-1.51c-3.66-2.75-7.98-2.57-11.36,0.5c-2.65,2.4-4.2,5.39-4.6,8.97
	c-0.3,2.72-0.15,5.39,0.54,8.06c0.99,3.83,2.35,7.52,4.38,10.92c3.01,5.05,4.97,6.75,10.5,9.02c0.32,1.01,0.69,2.17,1.05,3.34
	c3.3,10.83,8.28,20.77,15.41,29.56c1.23,1.52,2.57,2.99,4.05,4.26c5.61,4.8,11.6,9.02,18.48,11.82c0.67,0.27,1.32,0.63,1.97,0.96
	c0.09,0.05,0.13,0.2,0.35,0.54c-0.29,0.37-0.58,0.86-0.98,1.23c-3.52,3.27-7.3,6.17-11.75,8.03c-6.3,2.64-12.7,3.25-19.27,0.92
	c-4.4-1.56-8.01-4.22-10.87-7.85c-2.51-3.17-4.82-6.51-7.17-9.81c-0.85-1.19-1.65-2.46-1.62-4.16c3.52-2.97,6.34-6.62,8.66-10.7
	c1.13-1.99,1.69-4.09,1.2-6.38c-0.52-2.46-2.86-4.09-5.16-3.57c-0.58,0.13-1.15,0.41-1.66,0.72c-0.63,0.38-1.19,0.85-1.95,1.41
	c-0.33-0.72-0.62-1.35-0.9-1.98c-0.75-1.68-1.3-3.49-2.29-5c-1.71-2.58-4.57-2.54-6.35,0.03c-0.75,1.07-1.15,2.39-1.76,3.72
	c-0.79-0.2-1.59-0.49-2.41-0.6c-2.46-0.34-4.29,0.93-4.87,3.4c-0.25,1.06-0.32,2.17-0.48,3.37c-0.93,0.2-1.9,0.32-2.81,0.64
	c-2.49,0.86-3.38,2.81-2.39,5.26c0.32,0.78,0.83,1.48,1.28,2.25c-0.58,0.83-1.25,1.57-1.67,2.43c-0.88,1.78-0.31,3.76,1.36,4.85
	c0.71,0.46,1.51,0.9,2.31,1.06c2.14,0.43,4.35,1.12,6.47,0.96c3.6-0.27,7,0.67,10.16,0.94c3.19,4.42,6.1,8.66,9.24,12.75
	c4.71,6.12,10.91,9.78,18.56,10.71c5.06,0.61,10.01-0.03,14.7-2.03c2.57-1.1,4.96-2.61,7.42-3.96c0.72-0.4,1.4-0.88,2.07-1.3
	c0.76,0.9,0.11,1.54-0.14,2.14c-2.32,5.56-4.71,11.08-7.02,16.64c-5.05,12.18-8.75,24.81-12.23,37.5
	c-1.11,4.04-1.69,8.17-1.39,12.42c0.29,4.13,2.4,6.58,6.21,7.7c1.71,0.51,3.45,0.96,5.27,1.46c-7.03,8.88-21.42,16.64-30.96,16.03
	c-0.3-0.82-0.64-1.72-0.94-2.62c-1.75-5.21-4.33-9.92-8.36-13.7c-1.06-0.99-2.32-1.79-3.53-2.61c-0.5-0.34-1.09-0.58-1.66-0.77
	c-3.59-1.22-6.8-0.29-6.89,4.69c-0.03,1.9,0.36,3.68,1.13,5.38c2.48,5.53,6.24,9.99,11.33,13.22c1.22,0.77,2.65,1.21,4.03,1.7
	c1.25,0.45,2.47,0.26,3.31-0.84c0.6-0.79,1.32-0.91,2.22-0.98c7.84-0.56,14.97-3.19,21.52-7.54c4.81-3.2,9.16-6.94,13.06-11.34
	c13.44,0.82,26.78-0.19,40.1-2.2c1.25,0.88,1.88,2.18,2.31,3.61c1.05,3.54,2.06,7.08,3.18,10.59c1.88,5.85,3.84,11.69,5.75,17.53
	c0.27,0.82,0.48,1.65,0.75,2.63c-0.77,1.01-1.55,2.02-1.57,3.5c-0.01,1.05-0.63,2.1-0.99,3.14c-1.04,3.02-2.09,6.04-3.11,9.07
	c-0.64,1.9-0.8,3.85-0.46,5.83c0.68,3.91,3.85,5.6,7.33,3.72c1.26-0.67,2.49-1.64,3.36-2.77c3.54-4.59,4.94-9.8,3.92-15.62
	c-0.31-1.8-1.07-3.35-2.72-4.14c-1.51-0.73-2.02-1.99-2.5-3.43c-2.8-8.53-5.88-16.97-8.2-25.66c-0.79-2.95-1.85-5.82-2.85-8.9
	c0.62-0.24,1.14-0.49,1.7-0.65c4.34-1.27,8.71-2.41,13-3.81c3.36-1.09,6.62-2.48,9.91-3.77c0.56-0.22,1.1-0.52,1.6-0.87
	c0.76-0.53,1.04-1.44,0.63-2.29c-0.43-0.88-0.97-1.7-1.51-2.52c-2.62-4.01-5.25-8.01-7.88-12.02c-6.16-9.42-10.63-19.67-14.31-30.27
	c-2.26-6.5-4.18-13.12-6.25-19.69C254.5,185.11,254.43,184.63,254.22,183.62z M266.21,91.48c0.58,0.85,1.09,1.5,1.52,2.22
	c2.49,4.09,4.94,8.2,7.45,12.28c1.17,1.89,2.55,3.62,4.35,4.95c1.82,1.34,3.81,1.72,5.86,0.71c1.18-0.59,2.3-1.37,3.3-2.23
	c0.72-0.61,1.21-1.51,1.8-2.29c1.36,0.8,1.49,2.13,1.97,3.2c1.93,4.27,4.15,8.37,6.89,12.16c1.07,1.48,2.36,2.83,3.71,4.04
	c1.53,1.37,3.38,1.91,5.45,1.28c0.67-0.2,1.37-0.26,2-0.38c0.19,0.45,0.39,0.69,0.34,0.87c-0.28,1.07-0.55,2.14-0.93,3.17
	c-3.48,9.78-9.38,18.02-16.3,25.53c-4.59,4.96-9.99,8.98-15.88,12.33c-10.77,6.14-22.36,9.02-34.67,8.91
	c-4.01-0.04-8.04-0.39-12.01-0.99c-3.09-0.47-6.21-1.27-9.12-2.41c-10.2-4.02-19.01-10.02-25.51-19.09
	c-1.71-2.39-3.23-4.93-4.67-7.5c-5.71-10.21-9.63-20.95-9.68-32.9c-0.03-6.21,0.72-12.26,2.5-18.2c0.17-0.59,0.56-1.11,0.95-1.85
	c1.86,4.67,4.34,6.38,8.68,6.18c0.73-0.03,1.45-0.16,2.18-0.29c2.97-0.55,5.54-1.99,7.7-4.02c2.05-1.91,3.84-4.1,5.77-6.15
	c0.37-0.4,0.59-1.15,1.53-0.8c0.32,0.83,0.62,1.76,1.02,2.63c1.13,2.43,3.51,4.78,7.41,4.13c1.2-0.2,2.39-0.46,3.54-0.87
	c3.41-1.21,6.2-3.37,8.66-6c0.72-0.77,1.47-1.52,2.43-2.52c0.5,1.35,0.86,2.37,1.25,3.38c2.13,5.46,5.98,9.22,11.32,11.41
	c4.19,1.73,8.18,1.16,11.71-1.65c1.6-1.28,2.96-2.91,4.27-4.52C264.14,94.81,265.05,93.22,266.21,91.48z M292.37,72.77
	c3.29,4.13,6.62,7.92,9.5,12.02c4.93,7,8.41,14.7,9.95,23.21c0.75,4.14,0.78,8.33,0.62,12.52c-0.04,0.99-0.17,1.97-1.03,2.66
	c-2.6,2.07-5.53,1.88-7.82-0.5c-0.42-0.44-0.85-0.89-1.19-1.4c-3.9-5.7-7.36-11.62-9.17-18.39c-0.16-0.59-0.28-1.21-0.51-1.77
	c-0.46-1.15-1.99-1.38-2.65-0.35c-0.59,0.92-1.01,1.96-1.5,2.95c-0.77,1.54-1.56,3.08-2.98,4.14c-1.75,1.32-3.39,1.33-4.92-0.23
	c-1.19-1.21-2.3-2.57-3.19-4.02c-3.02-4.91-5.94-9.9-8.91-14.85c-0.44-0.74-0.84-1.51-1.37-2.18c-0.62-0.78-2.03-0.72-2.56,0.13
	c-0.45,0.72-0.73,1.55-1.1,2.32c-1.6,3.35-3.53,6.48-6.42,8.87c-2.81,2.33-5.97,2.75-9.26,1.34c-5-2.16-8.38-5.86-9.73-11.26
	c-0.42-1.66-0.6-3.39-0.88-5.08c-0.11-0.72-0.14-1.47-0.33-2.17c-0.22-0.81-1.54-1.13-2.13-0.54c-0.33,0.34-0.59,0.76-0.83,1.18
	c-0.66,1.17-1.22,2.43-1.97,3.54c-2.84,4.17-6.43,7.4-11.41,8.7c-3.06,0.79-4.98-0.35-5.73-3.46c-0.4-1.67-0.56-3.4-0.88-5.09
	c-0.11-0.6-0.3-1.18-0.56-1.73c-0.27-0.59-1.49-0.83-1.95-0.38c-0.43,0.42-0.82,0.92-1.09,1.45c-1.53,2.98-3.62,5.57-5.92,7.95
	c-1.6,1.65-3.48,3.07-5.37,4.4c-1.63,1.14-3.59,1.51-5.58,1.49c-2.37-0.03-3.51-0.88-4.21-3.21c-0.45-1.53-0.75-3.1-1.2-4.63
	c-0.3-1.02-0.16-1.9,0.3-2.84c4.61-9.36,11.18-17.04,19.82-22.76c10.11-6.7,21.2-10.43,33.44-10.34c2.57,0.02,5.11,0.13,7.64,0.59
	c3.95,0.73,7.9,1.44,12.1,2.2c0.75,1.93,2.59,2.9,4.62,3.48c1.75,0.5,3.55,0.94,5.36,1.06c1.17,0.07,2.16,0.4,3.07,0.97
	c1.04,0.64,1.99,1.42,2.93,2.19c2.28,1.86,4.49,3.79,6.8,5.61C286.5,72.35,289.04,73.46,292.37,72.77z M249.96,181.35
	c0.44,1.25,0.84,2.15,1.07,3.09c1.87,7.66,4.4,15.13,7.05,22.54c3.03,8.46,6.44,16.76,10.96,24.56c0.31,0.53,0.64,1.05,0.9,1.6
	c0.53,1.1,0.37,1.81-0.74,2.48c-1.46,0.88-2.93,1.87-4.52,2.38c-5.69,1.83-11.4,3.62-17.16,5.17c-6.17,1.66-12.56,1.65-18.89,2.05
	c-6.7,0.42-13.13-0.76-19.44-2.85c-2.18-0.72-4.42-1.53-5.62-3.93c4.42-17.05,10.7-33.43,17.95-49.46c1.4-3.11,2.54-6.36,4.47-9.39
	C233.84,181.45,241.74,181.65,249.96,181.35z M280.62,250.26c-0.62,0.33-1.22,0.75-1.89,0.99c-4.13,1.46-8.24,3.02-12.43,4.29
	c-8.88,2.69-17.89,4.8-27.2,5.35c-4.62,0.27-9.24,0.57-13.87,0.77c-5.99,0.26-11.93-0.32-17.79-1.59c-1.42-0.31-2.81-0.82-4.15-1.38
	c-1.19-0.49-1.92-1.46-2.1-2.81c-0.61-4.31-0.31-8.53,1.21-12.86c0.7,0.24,1.27,0.38,1.79,0.64c5.32,2.63,10.96,4.11,16.82,4.6
	c6.2,0.51,12.42,0.06,18.6-0.51c7.82-0.71,15.27-3.01,22.7-5.45c3.03-1,5.93-2.21,8.64-3.92c0.48-0.3,1.02-0.5,1.48-0.71
	C275.16,241.12,279.42,247.67,280.62,250.26z M266.95,45.98c-1.65-8.07-2.26-16.03-2.53-24.03c-0.07-1.96,0.02-3.94,0.23-5.9
	c0.21-1.92,0.22-3.92,1.38-5.95c0.45,0.77,0.86,1.33,1.12,1.96c0.5,1.25,0.83,2.58,1.42,3.78c0.21,0.42,0.98,0.71,1.51,0.74
	c0.36,0.02,0.89-0.44,1.1-0.82c0.28-0.51,0.33-1.16,0.48-1.75c0.38-1.55,0.71-3.11,1.17-4.63c0.14-0.47,0.62-0.85,0.99-1.32
	c1.28,1.27,1.9,2.6,2.24,4.04c0.63,2.63,1.16,5.27,1.72,7.92c0.15,0.72,0.1,1.51,0.38,2.17c0.21,0.5,0.75,1.08,1.22,1.17
	c0.47,0.08,1.22-0.26,1.53-0.66c0.5-0.66,0.73-1.53,1.1-2.31c0.88-1.9,1.66-3.84,2.66-5.66c0.64-1.17,1.52-2.23,2.42-3.21
	c0.88-0.96,2.12-0.87,2.82,0.2c0.67,1.01,1.3,2.11,1.66,3.25c1.73,5.53,1.37,10.96-1.37,16.09c-3.79,7.08-9.54,12.32-15.79,16.98
	C271.77,47.3,269.33,46.63,266.95,45.98z M326.78,188.78c-1.63,0.96-3.15,0.94-4.69,0.35c-0.68-0.26-1.3-0.68-1.99-0.91
	c-0.99-0.33-2,0.65-1.75,1.69c0.17,0.7,0.58,1.35,0.76,2.06c0.35,1.38,1.05,2.79,0.16,4.21c-4.95,0.32-8.35-1.54-10.47-5.79
	c-2.06-4.13-3.24-8.45-2.46-13.15c0.14-0.84-0.05-1.72,0.02-2.58c0.19-2.57,0.41-5.14,0.68-7.7c0.08-0.72,0.33-1.44,0.6-2.12
	c0.47-1.16,1.62-1.52,2.72-0.95c0.91,0.47,1.63,1.2,1.8,2.2c0.18,1.07,0.14,2.18,0.13,3.27c-0.01,0.72-0.25,1.44-0.18,2.14
	c0.07,0.74,0.48,1.41,1.28,1.63c0.82,0.23,1.47-0.13,1.87-0.79c0.53-0.87,1.14-1.54,2.08-1.98c1.99-0.94,3.9-2.04,5.91-2.89
	c1.29-0.54,2.61-1.3,4.08-0.95c0.91,3.73,0.52,4.92-2.09,6.76c-0.3,0.21-0.65,0.35-0.95,0.56c-0.91,0.66-1.24,1.43-0.95,2.16
	c0.32,0.8,1.02,1,1.78,1c0.61,0,1.22-0.15,1.8-0.06c0.79,0.11,1.29,0.67,1.48,1.45c0.21,0.85-0.19,1.46-0.91,1.79
	c-0.88,0.4-1.81,0.7-2.73,1.01c-0.8,0.28-1.65,0.45-2.42,0.8c-0.96,0.43-1.12,1.82-0.29,2.47c0.57,0.45,1.25,0.75,1.86,1.15
	C325.04,186.34,326.25,186.97,326.78,188.78z M262.29,53.56c-4.71,0.12-9.21-0.89-13.69-2.09c-1.56-0.42-2.09-1.52-2.3-2.97
	c-0.72-5.01-1.1-10.04-0.92-15.09c0.09-2.58,0.58-5.14,2.01-7.39c1.23-1.93,2.83-2.41,4.62-1.06c1.44,1.09,2.77,2.43,3.87,3.87
	c2.76,3.65,4.79,7.7,6.23,12.06c0.81,2.46,1.5,4.93,1.74,7.53C264.01,50.21,263.78,51.84,262.29,53.56z M275.81,59.45
	c0.43-1.64,0.84-3.16,1.23-4.69c0.39-1.54,0.74-3.08,1.07-4.44c3.47-1.53,15.11-4.73,18.58-5.1c1.19-0.12,2.42-0.5,3.64,0.26
	c0.9,1.78,0.29,3.57-0.25,5.31c-1.73,5.53-3.96,10.85-6.69,15.95c-0.23,0.43-0.45,0.88-0.74,1.27c-1.21,1.65-2.66,2.07-4.47,1.17
	c-0.98-0.48-1.92-1.09-2.77-1.78C282.19,64.8,279.02,62.12,275.81,59.45z M303.44,150.43c0.85-1.35,1.4-2.26,2-3.16
	c3.13-4.72,5.79-9.69,7.65-15.06c0.52-1.5,0.92-3.06,1.44-4.57c0.79-2.27,2.5-3.27,4.86-2.74c2.97,0.66,5.08,2.41,5.83,5.46
	c1.46,6.06-0.4,11.23-4.67,15.47c-3.96,3.92-9.09,5.04-14.45,5.22C305.39,151.06,304.68,150.73,303.44,150.43z M164.79,143.32
	c0.36,0.51,0.87,1.03,1.16,1.65c1.19,2.47,1.61,5.14,1.91,7.83c0.11,0.98,0.1,2.1,1.25,2.43c1.39,0.41,1.83-0.8,2.47-1.68
	c0.85-1.18,1.72-2.37,2.73-3.4c0.3-0.31,1.15-0.28,1.64-0.1c0.33,0.12,0.62,0.76,0.67,1.19c0.17,1.4-0.35,2.7-1.12,3.81
	c-1.75,2.51-3.61,4.93-5.41,7.39c-1.86,2.52-4.44,3.23-7.4,3.13c-1.44-0.05-2.9,0.05-4.34,0.14c-2.7,0.16-5.36,0-7.91-0.96
	c-0.5-0.19-0.9-0.65-1.49-1.1c0.62-0.63,0.99-1.12,1.46-1.45c0.6-0.42,1.29-0.67,1.91-1.05c1.44-0.89,1.36-2.22-0.15-3.11
	c-0.52-0.31-1.13-0.49-1.62-0.83c-0.48-0.33-1-0.73-0.74-1.71c0.44-0.12,0.98-0.35,1.53-0.41c1.49-0.17,2.43,0.89,3.55,1.6
	c0.39,0.25,1.25,0.2,1.62-0.09c0.37-0.29,0.6-1.05,0.55-1.57c-0.05-0.57-0.55-1.08-0.74-1.65c-0.38-1.15-0.8-2.31-0.99-3.5
	c-0.08-0.5,0.22-1.24,0.6-1.6c0.64-0.61,1.46-0.21,1.97,0.28c0.78,0.74,1.44,1.63,2.07,2.53c0.63,0.9,1.09,2.02,2.48,1.74
	c0.93-0.19,1.15-1.08,0.98-3.15c-0.12-1.46-0.22-2.94-0.19-4.41C163.25,144.4,163.53,143.54,164.79,143.32z M179.32,124.38
	c-1.18-0.64-1.75-0.86-2.2-1.22c-0.76-0.61-1.56-1.22-2.15-1.98c-4.49-5.78-7.24-12.22-7.1-19.7c0.07-3.27,1.51-5.87,3.87-8.04
	c1.9-1.75,4.82-1.69,6.44-0.51c1.97,1.43,3.43,3.3,2.58,5.94c-0.11,0.35-0.19,0.71-0.27,1.07c-1.51,6.65-1.91,13.37-1.39,20.16
	C179.21,121.31,179.23,122.52,179.32,124.38z M160.51,263.17c0.58-0.01,1.26-0.22,1.72,0.01c1.41,0.7,2.88,1.38,4.06,2.39
	c3.9,3.37,6.23,7.8,7.94,12.6c0.49,1.37,0.13,2.58-0.73,3.63c-0.36-0.06-0.63-0.04-0.83-0.15c-5.74-2.84-9.54-7.5-12.02-13.32
	C159.98,266.78,159.79,265.03,160.51,263.17z M267.32,301.39c2.69,0.4,3.72,1.89,3.82,4.34c0.17,4.22-0.93,8-3.44,11.36
	c-0.74,0.99-1.64,1.8-2.86,2.18c-1.01,0.32-1.98-0.2-2.25-1.24c-0.38-1.48-0.23-2.93,0.24-4.35c0.88-2.68,1.75-5.36,2.69-8.01
	C266.06,304.2,266.74,302.78,267.32,301.39z M265.1,56.62c1.36-2.32,1.53-4.87,3.21-6.84c2.31,0.38,4.33,1.03,5.84,3.15
	c-0.3,1.24-0.53,2.57-0.96,3.83c-0.49,1.43-1.28,1.85-2.85,1.68C268.62,58.27,266.97,57.86,265.1,56.62z"/>
<path class="st7" d="M231.94,143.61c-0.02-1.23,0.06-2.47-0.12-3.68c-0.07-0.47-0.68-0.99-1.17-1.23c-0.54-0.27-1.53,0.43-1.63,1.14
	c-0.45,3.42-0.81,6.88,0.42,10.21c1.88,5.11,7.72,7.9,12.84,6.21c5.46-1.79,8.35-5.95,8.12-11.7c-0.02-0.49-0.09-0.98-0.21-1.46
	c-0.22-0.88-1.14-1.48-1.93-1.29c-0.85,0.2-1.11,0.87-1.18,1.65c-0.13,1.46-0.06,2.96-0.41,4.36c-0.91,3.7-4.9,6.25-8.64,5.71
	c-2.43-0.35-5.37-3.05-5.81-5.51c-0.25-1.44-0.24-2.94-0.35-4.41C231.9,143.62,231.92,143.61,231.94,143.61z"/>
<path class="st7" d="M263.83,134.43c0.23,2.89,2.89,5.12,5.8,4.86c2.62-0.24,4.61-2.62,4.43-5.32c-0.19-2.85-2.52-4.7-5.58-4.44
	C265.31,129.8,263.6,131.6,263.83,134.43z"/>
<path class="st7" d="M210.12,122.43c0.43,3.58,4.72,5.83,7.8,4.08c1.81-1.02,2.69-3.43,2-5.44c-0.99-2.85-4.84-4.52-7.55-3.29
	C210.79,118.5,209.88,120.38,210.12,122.43z"/>
<path class="st8" d="M353.42,447.5c-1.57,2.96-1.94,5.61-1.78,8.36c0.29,4.79,1.88,6.68,6.65,7.71c5.05,1.09,10.13,2.03,15.18,3.08
	c5.88,1.21,11.76,2.48,17.62,3.71c1.28-1.89,2.29-3.67,3.6-5.19c1.53-1.8,3.14-3.65,5.06-5.01c5.38-3.79,10.89-3.57,16.29,0.27
	c2.9,2.06,4.86,4.79,6.2,7.98c0.46,1.09,0.72,2.25,1.14,3.61c0.97,0.14,1.96,0.45,2.93,0.4c8.62-0.42,17.23-0.85,25.83-1.41
	c2.22-0.14,4.44-0.63,6.62-1.14c1.82-0.43,3.68-0.92,5.14-2.56c0.38-2.84-0.96-5.49-1.42-8.12c-1.35-1.29-2.77-0.68-4.09-0.61
	c-4.24,0.2-8.23-0.49-11.83-2.88c-5.72-3.79-7.26-11.34-3.33-16.98c2.48-3.57,5.7-5.89,10.38-5.5c0.82,0.07,1.66-0.05,2.48-0.08
	c-0.1-4.11-3.47-18.37-6.37-27.04c-1.2-0.27-2.52-0.59-3.84-0.88c-3.05-0.7-5.97-1.69-8.53-3.51c-3.27-2.31-5.12-5.34-5.16-9.45
	c-0.06-4.95,0.96-9.51,4.72-13.02c1.46-1.37,3.3-2.33,5.24-3.66c-0.28-4.34-1.33-8.68-3.33-12.96c-4.13-0.34-8.01,0.53-12.08,0.71
	c-0.85,1.3-1.67,2.57-2.54,3.81c-1.28,1.83-2.7,3.5-4.72,4.63c-3.95,2.2-8.06,1.99-11.59-0.75c-2.33-1.81-4.23-3.99-5.16-6.85
	c-0.31-0.95-0.69-1.88-1.02-2.79c-3.84-1.37-7.53-2.67-11.36-4.04c-1.82,2.49-2.23,5.38-3.87,7.89c1.19,0.76,2.04,1.27,2.85,1.84
	c3.38,2.36,5.52,5.62,6.64,9.45c2.17,7.41-2.87,15.89-10.44,18.01c-2.81,0.79-5.47,0.33-8.12-0.48c-1.29-0.4-2.49-1.05-3.97-1.7
	c-2.79,4.47-4.05,9.42-5.89,14.11c-1.85,4.75-3.56,9.56-5.41,14.58c0.7,0.3,1.25,0.67,1.84,0.77c6.38,1.15,9.08,5.71,10.52,11.24
	c1.11,4.27,0.07,8.12-3.49,11.02c-1.59,1.3-3.2,2.62-4.99,3.61c-3.31,1.84-6.81,2.34-10.41,0.74
	C355.02,448.16,354.4,447.91,353.42,447.5z M394.15,420.85c-0.27-6.65,2.99-12.11,8.66-15.11c4.83-2.57,10.35-1.58,14.21,2.23
	c5.22,5.16,5.13,15.6,2.13,19.98c-1.92,2.78-4.15,5.01-7.76,5.33c-5.49,0.48-10.19-1.19-14-5.14
	C395.28,425.95,394.32,423.29,394.15,420.85z"/>
<path class="st9" d="M435.78,276.26c-7.28-2.45-14.33-6.29-22.79-4.22c-0.76,2.01-1.42,3.92-2.2,5.79c-1.18,2.81-2.34,5.66-3.7,8.4
	c-1.52,3.08-3.66,5.74-6.56,7.73c-1.55,1.07-3.11,2.15-4.58,3.31c-10.73,8.34-28.41,6.62-38.68-2.55c-1.77-1.58-3.19-3.54-4.78-5.34
	c-1.28,0.23-0.89,1.2-0.83,1.95c0.66,8.2,2.63,16.03,6.43,23.41c4.69,9.11,9.78,17.9,17.04,25.36c10.72,11.03,23.79,17.1,39.22,18.3
	c17.4,1.34,33.95-1.99,49.8-9.07c11.06-4.95,21.33-11.08,30.68-18.74c11.16-9.14,18.87-20.59,23.76-33.96
	c0.22-0.61,0.23-1.29,0.36-2.06c-3.44-0.88-6.74-1.72-10.39-2.65c-0.38,0.75-0.9,1.57-1.25,2.45c-4.51,11.35-12.76,19.15-23.7,24.44
	c-24.47,8.85-44.05-7.26-46.89-25.51c-0.79-5.06-1.48-10.07-0.69-15.18C436.09,277.64,435.9,277.13,435.78,276.26z M407.37,304.27
	c1.54,0.17,4.09,0.47,6.65,0.74c6.15,0.67,12.27,1.42,18.43,1.91c1.75,0.14,2.91,0.67,3.77,2.11c0.89,1.5,1.47,3.06,1.36,4.8
	c-0.33,5.13-1.33,10.06-4.11,14.52c-2.91,4.67-6.96,7.21-12.62,7.6c-8.14,0.55-14.99-1.66-17.24-12.09
	c-0.96-4.47-1.78-8.96-2.71-13.44c-1.04-5.03-0.34-5.93,4.9-6.1C405.98,304.32,406.16,304.32,407.37,304.27z"/>
<path class="st9" d="M351.09,252.21c-4.39,5.62-4.02,11.7-2.75,18.03c2.38,11.75,9.99,19.38,20.07,25.02
	c2.98,1.66,6.3,2.54,9.88,2.45c6.23-0.17,11.87-1.77,16.66-5.85c0.52-0.45,1.01-0.95,1.6-1.29c4.29-2.42,6.54-6.4,8.31-10.67
	c1.89-4.55,3.49-9.19,4.34-14.07c0.88-5.11,0.55-10.1-0.8-15.08c-0.88-3.24-2.64-5.85-5.13-8.04c-3.14-2.76-6.89-4.44-10.84-5.7
	c-1.61-0.51-3.06-0.19-4.21,1.11c-1.13,1.28-2.41,2.45-3.38,3.84c-4.93,7.09-12.2,9.64-20.43,10.11
	C360.14,252.33,355.84,252.18,351.09,252.21z M376.56,265.26c-0.11-1.33,0.37-3.06,1.42-4.69c1.81-2.8,4.44-3.52,7.57-3
	c2.49,0.4,3.86,2.12,4.39,5.51c0.15,0.99,0.22,2.03,0.09,3.01c-0.48,3.6-3.44,5.95-7.17,5.85
	C379.38,271.83,376.82,269.33,376.56,265.26z"/>
<path class="st9" d="M468.17,251.39c-1.98-0.31-3.57,0.28-5.21,0.79c-10.72,3.3-23.48,17.22-22.42,32.38
	c0.21,3.04,0.61,6.08,1.14,9.08c2.26,12.54,15.06,25.36,33.6,22.42c4.32-0.69,8.29-2.19,11.91-4.66c5.02-3.44,9.24-7.66,12.61-12.66
	c2.34-3.48,2.87-5.24,3.12-9.24c-2.53-1.47-5.19-2.97-7.82-4.54c-9.03-5.39-16.24-12.55-21.44-21.6c-1.52-2.64-2.7-5.49-3.99-8.26
	C469.12,253.9,468.68,252.64,468.17,251.39z M456.87,283.04c-0.14-3.67,3.65-7.72,7.32-7.82c4.03-0.1,8.14,3.91,8.38,8.17
	c0.21,3.83-3.23,6.99-7.76,7.11C460.28,290.64,457.04,287.61,456.87,283.04z"/>
<path class="st9" d="M466.48,234.97c-1.63-0.39-3.13-0.74-4.62-1.11c-6.87-1.73-12-5.61-15.47-11.76c-3.15-5.6-4.6-11.65-5.6-17.88
	c-0.26-1.63-0.58-3.24-0.86-4.78c-1.82-0.13-1.83,1.23-2.22,1.99c-2.62,5.2-5.93,9.93-9.53,14.51c-5.87,7.43-13.4,12.64-22.13,16.27
	c-1.72,0.71-3.45,1.41-5.7,2.32c1.35,1.01,2.2,1.73,3.14,2.32c5.8,3.76,9.15,9.02,10.35,15.75c0.78,4.38,0.93,8.75,0.42,13.27
	c4.01,0.68,7.92,1.14,11.71,2.03c3.82,0.9,7.53,2.26,11.49,3.48c6-12.73,14.77-22.24,29.45-25.31
	C466.76,242.5,466.63,239,466.48,234.97z"/>
<path class="st9" d="M295.05,423.06c3.12,0.22,5.15,0.37,7.19,0.5c1.24,0.08,2.44,0.25,2.97,1.58c0.45,1.15-0.04,2.32-1.52,3.45
	c-0.81,0.63-1.75,1.11-2.53,1.77c-0.77,0.65-1.55,1.38-2.07,2.23c-0.27,0.45-0.13,1.28,0.12,1.8c0.13,0.27,0.96,0.49,1.34,0.36
	c1.29-0.46,2.52-1.06,3.75-1.66c1.08-0.52,2.08-1.29,3.21-1.61c0.7-0.2,1.81-0.05,2.31,0.41c0.51,0.47,0.77,1.55,0.62,2.26
	c-0.27,1.31-0.99,2.52-1.4,3.81c-0.32,1.05,0.49,2,1.68,2.04c1.44,0.05,2.79-0.15,3.28-1.79c0.46-1.56,1.07-3.04,3.1-2.68
	c1.68,0.29,1.77,1.73,2.08,3.12c0.59,2.59,3.69,3.92,5.99,2.64c0.54-0.3,1.02-0.96,1.2-1.54c0.91-3.12,1.4-6.31,0.93-9.55
	c-0.51-3.53-1.2-7.03-1.77-10.55c-0.2-1.2-0.71-2.14-1.51-3.13c-1.89-2.35-4.01-4.61-4.4-7.87c-0.11-0.88-0.96-1.84-1.73-2.46
	c-4.51-3.66-9.62-5.95-15.57-5.96c-2.98-0.01-4,1.36-3.58,4.23c0.25,1.77,1.01,3.24,2.43,4.34c1.08,0.84,2.25,1.57,3.36,2.37
	c1.02,0.72,1.88,1.59,1.46,2.96c-0.34,1.09-1.29,1.51-2.39,1.63C299.5,416.22,297.62,419.2,295.05,423.06z"/>
<path class="st9" d="M505,328.45c2.93,1.17,5.54,1.03,8.07,1.01c4.32-0.03,8.59-0.72,12.71-2.04c3.84-1.23,7.26-3.22,10-6.13
	c3.83-4.07,5.92-8.74,4.43-14.43c-0.6-2.29-0.9-4.7-1.81-6.86c-0.76-1.83-2.02-3.54-3.38-5.04c-2.03-2.25-4.78-2.57-7.62-1.89
	c-0.77,0.19-1.59,0.73-2.08,1.34c-0.83,1.05-1.61,2.22-2.08,3.46c-3.99,10.62-9.42,20.39-17.21,28.81
	C505.74,327.02,505.55,327.52,505,328.45z"/>
<path class="st9" d="M484.39,454.42c1.78-0.62,1.95-1.98,2.26-3.31c0.69-2.89,1.47-3.86,2.79-3.49c2.23,0.63,1.88,2.51,1.98,4.18
	c0.1,1.52,0.15,3.06,0.42,4.55c0.15,0.77,0.73,1.48,1.06,2.11c2.12,0.39,3.11-0.85,3.84-2.2c0.73-1.33,1.07-2.87,1.81-4.19
	c0.36-0.64,1.27-1.31,1.94-1.32c0.69-0.02,1.58,0.6,2.06,1.21c0.62,0.78,0.77,1.93,1.4,2.7c0.96,1.15,2.07,2.21,3.27,3.11
	c0.42,0.32,1.36,0.26,1.93,0.05c1.01-0.36,1.02-1.4,0.74-2.16c-0.87-2.38-1.85-4.73-2.85-7.05c-0.54-1.24-1.34-2.38-1.79-3.65
	c-0.55-1.5,0.99-3.27,2.56-2.9c1.48,0.35,2.93,0.97,4.35,1.56c1.74,0.74,3.39,1.69,5.18,2.3c1.04,0.36,2.25,0.22,3.75,0.33
	c-0.84-3.37-2.61-5.57-5.02-7.27c-0.78-0.54-1.9-0.67-2.89-0.87c-1-0.21-2.06-0.18-3.04-0.44c-1.09-0.29-1.78-1.06-1.64-2.24
	c0.13-1.18,0.99-1.78,2.08-1.94c1.01-0.15,2.07-0.1,3.09-0.12c4.41-0.11,7.41-2.42,9.55-6.02c0.9-1.54,0.1-3.04-1.73-3.39
	c-0.17-0.03-0.34-0.08-0.51-0.08c-8.8-0.14-17.09,1.5-24.56,6.46c-3.68,2.44-6.35,5.62-8.36,9.43c-1.43,2.71-2.84,5.43-4.26,8.14
	c-0.84,1.6-0.89,3.28-0.43,4.95C483.54,453.44,484.06,453.93,484.39,454.42z"/>
<path class="st9" d="M346.9,294.19c-0.45-5.05-0.85-9.95-1.36-14.83c-0.12-1.16-0.54-2.31-0.94-3.44c-2.66-7.3-2.58-14.62-0.36-22
	c0.34-1.11,0.6-2.3,0.59-3.44c-0.03-3.45-1.85-5.26-5.34-5.46c-2.89-0.17-5.43,0.71-7.58,2.65c-3.94,3.54-5.91,7.93-5.64,13.16
	c0.27,5.13,1.36,10.09,4.03,14.6c3.92,6.66,8.7,12.63,14.23,18.04c0.37,0.35,0.83,0.61,1.27,0.87
	C345.89,294.4,346.09,294.3,346.9,294.19z"/>
<path class="st10" d="M499.96,332.46c2.89,0.59,5.08,0.99,7.24,1.49c2.19,0.52,4.39,1.2,5.65,3.21c3.73,5.9,7.52,11.79,10.99,17.84
	c1.33,2.31,2.25,4.99,2.73,7.61c1.02,5.55-1.32,8-7.09,7.63c-1.67-0.11-3.39-0.65-4.92-1.36c-1.86-0.86-3.54-2.08-5.29-3.17
	c-1.17-0.73-2.24-1.61-3.44-2.25c-2.42-1.31-4.02-0.56-4.47,2.04c-0.22,1.34-0.19,2.74-0.55,4.04c-0.67,2.45-1.3,4.95-2.41,7.21
	c-2.64,5.41-4.59,3.94-7.22,1.22c-1.31-1.35-2.62-2.73-4.13-3.84c-2.08-1.54-4.26-1.24-5.97,0.73c-1,1.16-1.79,2.49-2.63,3.77
	c-0.74,1.14-1.37,2.36-2.15,3.48c-1.62,2.33-3.93,3.36-6.72,2.84c-4.8-0.88-8.82-2.94-10.75-7.73c-0.57-1.41-1.04-2.88-1.42-4.36
	c-0.99-3.95-1.93-7.93-2.83-11.9c-0.18-0.77-0.08-1.6-0.12-2.69C471.25,352.23,486.7,344.15,499.96,332.46z"/>
<path class="st10" d="M323.94,330.24c0.12-1.49,0.44-3.06,1.11-4.38c0.91-1.8,1.99-3.64,3.42-5.03c4.27-4.18,8.69-8.21,13.18-12.17
	c1.9-1.67,4.07-3.07,6.97-3.97c1.27,3.13,2.28,5.84,3.47,8.45c5.17,11.34,11.36,22.03,20.25,31.04c3.1,3.15,3.21,4.88,0.96,8.57
	c-3.15,5.15-7.75,8.66-13.52,10.48c-5.93,1.87-10.08-0.1-12.31-5.76c-1.06-2.67-2.74-3.71-5.51-3.48c-0.85,0.07-1.72,0.07-2.58,0
	c-3.81-0.29-5.31-2.26-4.28-5.77c0.38-1.28,1.06-2.49,1.7-3.69c0.63-1.2,1.46-2.31,2.04-3.53c0.84-1.78-0.19-3.55-2.13-3.71
	c-1.2-0.1-2.41,0.07-3.61-0.01c-1.53-0.1-3.11-0.16-4.58-0.58C325.2,335.73,323.68,333.58,323.94,330.24z"/>
<path class="st10" d="M355.92,237.77c-0.69,0.59-1.55,1.02-3.02,1.97c1.47-6.08,3.15-11.21,5.38-16.14
	c5.51-12.18,13.88-22.2,23.77-31.17c6.58-5.97,14.01-10.38,22.4-13.39c6.71-2.41,13.62-3.75,20.65-4.52
	c6.57-0.73,13.13-0.43,19.52,1.27c7.31,1.95,14.62,3.89,21.71,6.59c9.47,3.61,17.93,8.64,24.76,16.16c1.61,1.77,3.09,3.88,5.11,5
	c3.36,1.86,5.31,4.75,7.3,7.7c4.58,6.81,8.36,14.06,11.62,21.56c5.83,13.47,8.66,27.52,8.07,42.18c-0.19,4.71-0.77,9.4-2.35,13.83
	c-4.64,0.68-8.47-0.46-11.86-2.44c-0.88-5.51-1.66-10.7-2.57-15.88c-1.12-6.4-3.88-11.9-9.07-16.11c-6.17-5-13.14-8.01-21.15-8.6
	c-1.19-0.09-2.37-0.19-3.47-0.27c-1.56-4.56-1.61-5.78-0.41-10.59c0.77-3.08,0.26-3.94-2.88-4.58c-2.19-0.45-4.42-0.73-6.6-1.24
	c-5.33-1.22-9.29-4.25-12.01-8.93c-2.42-4.18-3.84-8.69-4.69-13.4c-0.95-5.19-1.67-10.39-1.76-15.68c-0.02-1.18-0.22-2.38-0.58-3.49
	c-0.44-1.36-2.39-1.88-3.43-0.93c-1.39,1.26-2.65,2.54-3.38,4.41c-1.36,3.48-2.88,6.93-4.65,10.22
	c-7.41,13.78-18.09,23.86-33.56,28.49c-4.01,1.19-7.92,2.29-12.11,1.06c-0.98-0.29-2.04-0.32-3.08-0.42
	C373.43,229.47,363.95,230.96,355.92,237.77z"/>
<path class="st10" d="M474.08,250.99c0.31-0.13,0.62-0.38,0.92-0.37c10.2,0.27,17.94,5,23.94,12.84c0.51,0.65,0.81,1.48,1.12,2.27
	c2.1,5.59,2.71,11.47,3.7,17.84C490.17,278.97,474.54,261.51,474.08,250.99z"/>
<path class="st10" d="M354.42,247.31c4.29-8.87,18.33-14.62,28.74-11.25c-0.94,1.26-1.85,2.45-2.74,3.67
	c-2.53,3.45-5.9,5.5-10.1,6.56C365.23,247.58,360.11,247.29,354.42,247.31z"/>
<path class="st11" d="M411.13,538.47c8.3,2.24,19.87-0.51,25.38-5.83c-0.03-1.42-1.03-2.11-2.24-2.38
	c-5.09-1.17-10.24-1.43-15.38-0.52c-2.23,0.39-4.23,1.43-5.86,3.05C411.5,534.3,410.55,536.01,411.13,538.47z"/>
<path class="st11" d="M316.32,503.77c1.11-1.26,1.18-2.4,0.59-3.53c-2.96-5.73-6.37-11.16-11.24-15.55
	c-1.49-1.35-3.07-2.63-5.62-2.42c-0.25,1.04-0.73,2.01-0.65,2.92c0.16,1.65,0.45,3.37,1.06,4.91
	C302.71,495.8,309.72,501.8,316.32,503.77z"/>
<path class="st9" d="M449.46,383.77c-0.13-0.21-0.26-0.42-0.4-0.63c0.04,0.11,0.04,0.24,0.12,0.31c0.11,0.09,0.27,0.14,0.41,0.2
	C449.58,383.64,449.46,383.77,449.46,383.77z"/>
<path class="st12" d="M382.85,390.65c4.61-0.04,9.88-6.88,9.18-10.9c-0.56-3.11-1.74-5.84-4.06-8.03c-2.11-2-4.08-1.77-5.38,0.73
	c-2.19,4.23-4.28,8.5-6.3,12.81c-0.9,1.91-0.35,3.28,1.67,4.1C379.51,389.97,381.21,390.23,382.85,390.65z"/>
<path class="st12" d="M355.07,442.34c2.25,2.66,4.83,3.25,7.87,1.87c0.93-0.42,1.84-0.93,2.69-1.49c5.85-3.81,6.31-10.15,1.12-14.9
	c-2.65-2.43-6.15-1.82-7.46,1.52C357.61,433.58,356.14,437.89,355.07,442.34z"/>
<path class="st12" d="M461.16,453.08c-0.8-3.78-1.5-7.4-2.35-11c-0.85-3.57-5.04-5.5-8.49-3.97c-2.95,1.31-4.22,3.82-4.63,6.8
	c-0.4,2.91,0.58,5.26,3.16,6.92C452.68,454.31,456.67,454.73,461.16,453.08z"/>
<path class="st12" d="M397.03,471.17c7.23,1.37,14.15,1.69,21.17,1.31c-0.81-5.68-4.76-9.88-9.77-10.48
	c-1.12-0.14-2.39,0.1-3.48,0.48C401.08,463.81,399.32,465.76,397.03,471.17z"/>
<path class="st12" d="M443.4,380.51c-1.42,0.76-2.4,1.07-3.1,1.68c-1.7,1.5-2.73,3.41-3.19,5.66c-1.47,7.1,1.51,11.48,8.75,12.73
	c1.27,0.22,2.34-0.81,2.04-2.16c-0.89-3.95-1.88-7.88-2.86-11.82C444.6,384.82,444.1,383.04,443.4,380.51z"/>
<path class="st12" d="M407.2,362.62c1.44,3.57,3.33,5.79,6.75,6.02c1.24,0.08,2.67-0.51,3.8-1.14c1.29-0.72,2.4-1.81,2.54-3.83
	C415.97,363.47,411.85,362.9,407.2,362.62z"/>
<path class="st12" d="M416.98,418.95c-0.5-1.78-0.77-3.66-1.52-5.31c-2.21-4.79-7.71-6.09-12.05-3.01
	c-2.18,1.55-3.68,3.55-4.33,6.12c-1.78,7.06,4.77,13.64,12.11,12.04c1.23-0.26,2.46-1.22,3.32-2.16
	C416.46,424.49,416.87,421.81,416.98,418.95z"/>
<path class="st13" d="M432.5,313.4c-3.01-1.54-5.8-2.04-8.76-2.29c-4.79-0.41-9.54-1.22-14.32-1.82c-0.99-0.13-1.98-0.08-3.33-0.12
	c0.01,1.06-0.1,1.87,0.06,2.64c0.87,4.32,1.7,8.64,2.73,12.92c0.95,3.9,3.59,5.99,7.68,6.38c8.39,0.81,11.61-2.04,14.22-8.13
	C432.07,320.02,432.88,316.89,432.5,313.4z"/>
<path class="st14" d="M350.66,286.66c-0.3-8,5.04-15.41,13.36-15.49c7.89-0.08,14.37,7.05,16.11,14.37
	c1.28,5.41-0.14,11.15-3.7,14.8c-4.3,6-12.84,6.02-18.3,1.3C353.47,298.38,350.88,292.23,350.66,286.66z"/>
<path class="st14" d="M466.14,303.32c4.19-8.57,13.76-10.13,21.74-6.08c7.46,3.78,11,12.23,9.74,20.29
	c-1.13,7.16-7.57,11.07-14.08,12.05c-4.83,0.73-10.57-1.43-13.78-5.11c-0.56-0.64-1.06-1.32-1.49-2.03
	C464.29,317.07,463.25,309.23,466.14,303.32z"/>
<path class="st7" d="M449.46,383.77c0.75,0.87,1.64,1.65,2.22,2.61c3.95,6.6,8.36,12.87,13.25,18.81c4.77,5.8,9.56,11.6,14.47,17.3
	c2.54,2.95,5.36,5.69,8.31,8.79c-1.11,2-2.27,4.04-3.39,6.12c-1.61,3-3.31,5.96-4.73,9.05c-1.52,3.27-1.27,6.62,0.31,9.84
	c1.59,3.22,2.7,3.67,6.61,2.91c0.31-0.06,0.66,0.01,1.12,0.02c0.57,0.73,1.12,1.59,1.82,2.32c2.23,2.28,4.77,2.63,7.45,0.9
	c1.41-0.9,2.62-2.13,4.05-3.32c1.19,0.8,2.22,1.72,3.44,2.26c1.38,0.63,2.89,1.24,4.38,1.34c3.63,0.23,5.81-1.99,5.74-5.58
	c-0.02-1.19-0.15-2.38-0.38-3.54c-0.21-1.13-0.61-2.23-1-3.6c1.66-0.63,2.84,0.32,4.05,0.58c2.07,0.45,4.07,0.69,6.1-0.15
	c1.61-0.67,2.41-1.84,2.45-3.54c0.05-2.31-0.83-4.32-2.05-6.2c-0.91-1.41-1.94-2.74-3.01-4.26c1.04-0.86,2.04-1.52,2.82-2.39
	c1.37-1.52,2.83-3.02,3.8-4.78c2.43-4.35,0.24-8.72-4.74-9.57c-2.02-0.35-4.13-0.33-6.19-0.17c-8.55,0.68-16.66,2.74-23.63,7.85
	c-2.48-0.24-4.23-1.57-5.74-3.23c-2.09-2.27-4.23-4.49-6.16-6.87c-6.47-7.94-13.07-15.8-19.16-24.01
	c-3.65-4.91-6.64-10.31-9.58-15.68c-2.84-5.18-5.26-10.59-8.03-16.23c1.68-0.47,3.28-0.91,4.79-1.34c1.41,1.59,1.73,3.27,2.13,4.89
	c0.79,3.3,1.53,6.62,2.34,9.92c0.79,3.16,1.94,6.21,4.16,8.66c3.5,3.86,8.11,5.71,13.26,6.11c3.06,0.23,5.77-1.01,7.85-3.25
	c1.15-1.25,2.07-2.71,3.02-4.12c0.86-1.26,1.63-2.57,2.63-4.16c1,0.7,1.83,1.2,2.54,1.82c1.16,1.01,2.16,2.2,3.36,3.17
	c3.4,2.78,7.11,2.5,10.04-0.76c1.97-2.2,3.21-4.82,4.09-7.6c0.51-1.61,0.9-3.26,1.45-5.27c0.85,0.32,1.61,0.52,2.29,0.88
	c1.81,0.97,3.54,2.11,5.38,3.02c3.74,1.84,7.64,1.94,11.57,0.67c4.29-1.39,6.51-4.32,6.52-8.75c0.01-4.34-1.34-8.4-3.48-12.12
	c-2.19-3.84-4.68-7.53-7.02-11.29c-1.43-2.28-3.06-4.46-4.01-7.24c2.45-1.08,4.86-1.23,7.15-1.75c5.15-1.16,9.78-3.31,13.69-6.83
	c5.7-5.15,8.66-11.37,7.32-19.13c-0.44-2.51-0.88-5.04-1.7-7.44c-2.77-8.09-7.45-11.38-16.43-11.61c-0.06-0.92-0.34-1.91-0.16-2.82
	c3.44-19.06-0.15-37.16-7.59-54.72c-3.12-7.38-6.98-14.38-11.34-21.13c-3.17-4.92-7.02-9.25-11.45-13.06
	c-7.04-6.03-14.38-11.65-22.86-15.67c-1.7-0.81-3.44-1.52-5.19-2.21c-1.27-0.51-2.67-0.76-3.9-1.36
	c-5.93-2.88-12.38-4.04-18.68-5.68c-9.15-2.39-18.43-2.18-27.71-0.55c-6.3,1.12-12.45,2.69-18.39,5.07
	c-6.77,2.72-12.93,6.32-18.47,11.08c-11.46,9.84-21.08,21.02-27.34,34.8c-2.62,5.76-4.3,11.82-6.05,17.86
	c-0.27,0.94-0.63,1.86-1.05,3.1c-1.04-0.47-1.76-0.85-2.51-1.15c-5.89-2.4-11.17-1.27-15.77,2.88c-4.99,4.51-7.35,10.11-7.04,16.84
	c0.31,6.6,2.07,12.71,5.6,18.31c4.1,6.52,8.89,12.5,14.48,17.87c1.09,1.05,2.18,2.09,3.54,3.4c-0.87,0.67-1.48,1.2-2.16,1.63
	c-6.84,4.42-12.73,9.89-18.15,15.85c-2.69,2.95-4.49,6.35-5.34,10.31c-1.05,4.91,1.41,10.64,7.89,12.54
	c0.82,0.24,1.69,0.34,2.53,0.52c0.81,0.18,1.62,0.37,2.68,0.63c-0.64,1.67-1.26,3.02-1.71,4.43c-2.06,6.47,1.16,11.16,8.01,11.71
	c1.2,0.09,2.4,0.16,3.78,0.24c0.6,1.2,1.17,2.43,1.84,3.59c1.81,3.16,4.59,5.04,8.18,5.65c3.82,0.64,7.54,0.33,11.13-1.32
	c6.48-2.97,11.58-7.32,14.63-13.8c0.28-0.6,0.63-1.17,1.02-1.9c0.71,0.33,1.36,0.55,1.92,0.92c1.12,0.75,2.19,1.58,3.52,2.56
	c-0.67,1.12-1.17,2.18-1.88,3.08c-8.35,10.61-16.63,21.29-25.17,31.75c-6.09,7.46-13,14.11-21.73,18.63
	c-2.28,1.18-4.65,2.22-7.04,3.18c-2.09,0.84-3.07,0.37-4.13-1.65c-0.16-0.3-0.28-0.62-0.4-0.93c-1.52-4.3-4.68-7.02-8.7-8.94
	c-3.74-1.79-7.53-3.39-11.77-3.61c-0.52-0.03-1.03-0.16-1.54-0.17c-6.13-0.05-9.64,4.26-8.18,10.11c0.32,1.3,0.89,2.57,1.52,3.76
	c0.54,1.02,1.34,1.91,2.35,3.32c-1.23,1.12-2.6,2.18-3.72,3.42c-1.13,1.27-2.22,2.64-2.99,4.13c-1.26,2.49-0.6,4.57,1.72,6.2
	c0.82,0.57,1.78,0.95,2.98,1.56c-0.5,0.96-1.01,1.79-1.39,2.66c-2.17,4.96,0.22,8.57,5.61,8.47c1.03-0.02,2.04-0.18,2.98-0.27
	c0.35,0.28,0.7,0.44,0.84,0.71c2.07,4.06,3.88,5.27,8.06,4.43c2.54-0.51,4.61-0.34,6.86,0.93c1.27,0.71,2.98,0.89,4.51,0.92
	c3.79,0.08,6.31-1.73,7.19-5.35c1.04-4.3,1.67-8.64,0.65-13.11c-0.87-3.79-1.33-7.65-1.99-11.66c1.73-0.83,3.24-1.6,4.78-2.28
	c7.65-3.4,14.24-8.26,20.12-14.13c5.48-5.46,10.14-11.58,14.94-17.59c2.11-2.65,4.21-5.32,6.36-8.04c0.99,1.15,0.15,1.88-0.19,2.52
	c-7.46,14.24-12.44,29.46-18.09,44.42c-3.35,8.89-6.28,17.93-9.17,26.96c-1.17,3.63-1.44,7.32-0.74,11.08
	c0.81,4.43,3.38,7.34,7.76,8.65c1.8,0.54,3.64,0.92,5.9,1.49c-0.86,1.42-1.45,2.61-2.26,3.65c-3.23,4.21-6.48,8.39-9.8,12.52
	c-5.2,6.48-11.33,11.9-19,15.42c-2.32,1.07-4.61,2.24-7.4,2.25c-2.35-7.31-6.71-13.38-11.54-19.11c-1.51-1.79-3.64-3.08-5.54-4.54
	c-0.54-0.4-1.2-0.71-1.86-0.89c-4.83-1.3-8.42-0.32-8.93,5.8c-0.27,3.1,0.41,6.1,1.91,8.85c3.62,6.67,9.02,11.51,15.96,14.66
	c2.23,1,4.48,0.91,7.01,0.58c11.56-1.53,20.64-7.3,28.47-15.34c2.74-2.81,5.21-5.89,7.7-8.93c2.37-2.92,4.63-5.92,6.88-8.93
	c1.2-1.63,2.27-3.34,3.44-5.09c9.91,1.94,19.86,3.86,29.8,5.84c9.83,1.95,19.88,0.96,29.99,1.73c1.91,16.02,2.59,31.98,7.85,47.08
	c-2.16,1.22-3.88,0.5-5.55,0.42c-3.63-0.2-7.22-0.3-10.8,0.6c-3.27,0.83-6.08,2.36-8.36,4.82c-2.08,2.24-2.98,4.89-2.7,7.95
	c0.22,2.49,1.51,4.14,3.86,4.87c1.3,0.41,2.69,0.72,4.05,0.77c8.71,0.37,16.7-1.97,24.05-6.53c2.41-1.48,4.26-3.46,4.85-6.33
	c0.33-1.58,0.02-2.83-1.55-3.32c-2.14-0.68-2.92-2.12-3.48-3.97c-2.29-7.67-4.22-15.41-5.14-23.35c-0.88-7.59-1.61-15.19-2.43-23.02
	c1.24-0.2,2.4-0.48,3.56-0.57c6.53-0.53,13.08-0.99,19.6-1.55c3.8-0.32,7.52-1.11,10.94-2.85c3.69-1.88,4.51-3.4,3.62-7.42
	c-3.16-14.25-6.32-28.52-9.71-42.72c-2.68-11.23-5.69-22.39-8.49-33.59c-0.4-1.62-0.43-3.33-0.63-5c-0.14-0.06-0.3-0.12-0.41-0.2
	c-0.08-0.07-0.08-0.2-0.12-0.31C449.2,383.35,449.33,383.56,449.46,383.77z M472.71,245.49c-1.56-4.56-1.61-5.77-0.41-10.59
	c0.77-3.08,0.27-3.94-2.88-4.58c-2.2-0.45-4.42-0.73-6.6-1.24c-5.33-1.22-9.29-4.25-12.01-8.93c-2.42-4.18-3.84-8.69-4.69-13.4
	c-0.95-5.19-1.67-10.39-1.76-15.68c-0.02-1.18-0.22-2.38-0.58-3.49c-0.44-1.36-2.39-1.88-3.43-0.93c-1.39,1.26-2.65,2.54-3.38,4.41
	c-1.36,3.48-2.88,6.93-4.65,10.22c-7.41,13.78-18.09,23.86-33.56,28.49c-4.01,1.19-7.92,2.29-12.11,1.06
	c-0.98-0.29-2.04-0.32-3.08-0.42c-10.14-0.97-19.62,0.53-27.66,7.33c-0.69,0.59-1.55,1.02-3.02,1.97
	c1.47-6.08,3.15-11.21,5.38-16.15c5.51-12.18,13.88-22.2,23.77-31.17c6.58-5.97,14.01-10.38,22.4-13.39
	c6.71-2.41,13.62-3.75,20.65-4.53c6.57-0.73,13.13-0.43,19.52,1.27c7.31,1.95,14.62,3.89,21.71,6.59
	c9.47,3.61,17.93,8.64,24.76,16.16c1.61,1.77,3.09,3.88,5.11,5c3.36,1.86,5.31,4.74,7.3,7.7c4.58,6.81,8.36,14.05,11.62,21.56
	c5.83,13.47,8.66,27.52,8.07,42.18c-0.19,4.71-0.77,9.4-2.35,13.83c-4.64,0.68-8.47-0.46-11.86-2.44c-0.88-5.5-1.66-10.7-2.57-15.88
	c-1.12-6.4-3.88-11.9-9.07-16.11c-6.17-5-13.14-8.01-21.15-8.6C475.01,245.68,473.81,245.58,472.71,245.49z M353.43,447.49
	c0.99,0.41,1.6,0.66,2.2,0.93c3.6,1.61,7.11,1.1,10.41-0.74c1.79-0.99,3.39-2.31,4.98-3.61c3.56-2.91,4.6-6.75,3.49-11.02
	c-1.43-5.53-4.13-10.09-10.51-11.24c-0.6-0.1-1.15-0.47-1.84-0.77c1.85-5.02,3.56-9.83,5.41-14.58c1.83-4.7,3.09-9.65,5.89-14.11
	c1.49,0.65,2.69,1.3,3.97,1.7c2.65,0.82,5.31,1.27,8.12,0.49c7.57-2.11,12.62-10.59,10.44-18.01c-1.13-3.83-3.26-7.1-6.64-9.45
	c-0.82-0.57-1.68-1.08-2.86-1.84c1.64-2.5,2.05-5.41,3.87-7.89c3.83,1.37,7.53,2.67,11.36,4.04c0.33,0.91,0.71,1.84,1.02,2.79
	c0.94,2.86,2.83,5.04,5.16,6.85c3.54,2.74,7.64,2.96,11.59,0.75c2.02-1.13,3.45-2.8,4.72-4.63c0.87-1.24,1.68-2.52,2.54-3.81
	c4.06-0.18,7.95-1.05,12.08-0.71c1.99,4.28,3.05,8.62,3.33,12.96c-1.94,1.34-3.79,2.29-5.24,3.66c-3.76,3.51-4.77,8.07-4.72,13.02
	c0.05,4.11,1.89,7.14,5.16,9.45c2.57,1.81,5.49,2.81,8.53,3.51c1.33,0.3,2.64,0.6,3.84,0.88c2.89,8.66,6.27,22.92,6.37,27.04
	c-0.82,0.03-1.66,0.14-2.48,0.08c-4.68-0.38-7.9,1.94-10.38,5.5c-3.93,5.65-2.39,13.19,3.33,16.98c3.6,2.39,7.59,3.08,11.83,2.88
	c1.32-0.06,2.74-0.68,4.09,0.61c0.46,2.62,1.8,5.27,1.42,8.11c-1.46,1.64-3.32,2.13-5.14,2.56c-2.18,0.51-4.4,1-6.62,1.14
	c-8.6,0.55-17.22,0.98-25.84,1.41c-0.97,0.05-1.96-0.27-2.93-0.4c-0.42-1.36-0.68-2.52-1.14-3.61c-1.35-3.18-3.3-5.92-6.2-7.98
	c-5.4-3.82-10.92-4.06-16.29-0.27c-1.92,1.36-3.53,3.21-5.06,5.01c-1.31,1.52-2.31,3.3-3.6,5.19c-5.86-1.23-11.74-2.5-17.62-3.71
	c-5.05-1.05-10.14-1.99-15.18-3.08c-4.77-1.03-6.36-2.93-6.65-7.71C351.48,453.11,351.85,450.46,353.43,447.49z M435.78,276.26
	c0.12,0.87,0.32,1.38,0.24,1.85c-0.8,5.11-0.1,10.12,0.69,15.18c2.84,18.25,22.43,34.36,46.89,25.51
	c10.94-5.3,19.19-13.1,23.7-24.44c0.35-0.88,0.87-1.7,1.25-2.45c3.64,0.93,6.95,1.78,10.39,2.65c-0.13,0.77-0.14,1.45-0.36,2.06
	c-4.9,13.37-12.61,24.81-23.76,33.96c-9.35,7.67-19.62,13.8-30.68,18.74c-15.85,7.08-32.38,10.42-49.8,9.07
	c-15.43-1.2-28.49-7.27-39.22-18.3c-7.24-7.46-12.35-16.25-17.04-25.36c-3.81-7.38-5.77-15.22-6.43-23.41
	c-0.07-0.75-0.45-1.72,0.83-1.95c1.6,1.81,3.02,3.76,4.78,5.34c10.27,9.17,27.94,10.89,38.68,2.55c1.49-1.15,3.04-2.24,4.59-3.31
	c2.9-2,5.04-4.65,6.56-7.73c1.36-2.74,2.52-5.57,3.7-8.4c0.77-1.87,1.44-3.78,2.2-5.79C421.45,269.97,428.5,273.82,435.78,276.26z
	 M351.09,252.21c4.75-0.04,9.05,0.11,13.33-0.15c8.23-0.49,15.49-3.03,20.43-10.12c0.97-1.39,2.25-2.56,3.38-3.84
	c1.15-1.31,2.6-1.62,4.21-1.11c3.95,1.26,7.7,2.94,10.84,5.7c2.5,2.18,4.25,4.8,5.13,8.04c1.35,4.98,1.69,9.98,0.8,15.08
	c-0.85,4.88-2.46,9.52-4.34,14.07c-1.77,4.28-4.03,8.25-8.31,10.67c-0.59,0.33-1.09,0.84-1.6,1.29c-4.78,4.08-10.43,5.68-16.66,5.85
	c-3.58,0.1-6.89-0.78-9.88-2.45c-10.1-5.63-17.7-13.27-20.08-25.02C347.05,263.92,346.7,257.84,351.09,252.21z M468.17,251.39
	c0.51,1.26,0.95,2.52,1.51,3.72c1.29,2.77,2.47,5.61,3.99,8.26c5.2,9.05,12.42,16.22,21.44,21.6c2.63,1.57,5.29,3.07,7.82,4.54
	c-0.23,3.99-0.77,5.74-3.12,9.24c-3.37,5-7.59,9.23-12.61,12.66c-3.62,2.47-7.59,3.98-11.91,4.66c-18.55,2.93-31.33-9.89-33.6-22.42
	c-0.54-3-0.94-6.05-1.14-9.08c-1.06-15.16,11.69-29.08,22.42-32.38C464.61,251.67,466.19,251.07,468.17,251.39z M466.48,234.97
	c0.15,4.03,0.28,7.52,0.42,11.11c-14.69,3.07-23.45,12.58-29.45,25.31c-3.96-1.22-7.67-2.57-11.49-3.48
	c-3.79-0.9-7.69-1.35-11.71-2.03c0.51-4.52,0.36-8.9-0.42-13.27c-1.2-6.72-4.55-11.98-10.35-15.75c-0.93-0.61-1.79-1.33-3.14-2.32
	c2.26-0.92,3.98-1.61,5.7-2.32c8.73-3.63,16.26-8.84,22.13-16.27c3.62-4.57,6.92-9.31,9.53-14.51c0.39-0.78,0.4-2.13,2.22-1.99
	c0.27,1.53,0.6,3.15,0.86,4.78c1.01,6.22,2.45,12.28,5.6,17.88c3.47,6.15,8.6,10.03,15.47,11.76
	C463.35,234.23,464.85,234.58,466.48,234.97z M499.96,332.46c2.89,0.59,5.08,0.98,7.24,1.49c2.19,0.52,4.39,1.2,5.65,3.21
	c3.73,5.9,7.51,11.79,10.99,17.84c1.33,2.31,2.25,4.99,2.73,7.61c1.02,5.55-1.32,8-7.09,7.63c-1.67-0.11-3.39-0.65-4.92-1.36
	c-1.86-0.86-3.54-2.08-5.29-3.17c-1.16-0.73-2.24-1.61-3.44-2.25c-2.42-1.31-4.02-0.56-4.46,2.04c-0.22,1.34-0.19,2.74-0.55,4.04
	c-0.67,2.45-1.3,4.95-2.41,7.21c-2.64,5.41-4.59,3.94-7.22,1.22c-1.31-1.35-2.62-2.73-4.13-3.84c-2.08-1.54-4.27-1.24-5.97,0.73
	c-1,1.16-1.79,2.49-2.64,3.77c-0.74,1.15-1.37,2.36-2.14,3.48c-1.62,2.34-3.93,3.36-6.72,2.84c-4.8-0.88-8.82-2.94-10.75-7.72
	c-0.57-1.41-1.04-2.88-1.42-4.36c-0.99-3.95-1.92-7.93-2.83-11.9c-0.18-0.77-0.08-1.6-0.12-2.68
	C471.25,352.23,486.7,344.15,499.96,332.46z M348.64,304.68c1.27,3.13,2.28,5.84,3.47,8.45c5.17,11.34,11.36,22.03,20.25,31.04
	c3.1,3.15,3.21,4.88,0.96,8.57c-3.15,5.15-7.75,8.66-13.52,10.48c-5.93,1.87-10.08-0.1-12.31-5.76c-1.06-2.67-2.74-3.71-5.51-3.48
	c-0.85,0.07-1.72,0.07-2.58,0c-3.81-0.29-5.31-2.26-4.28-5.77c0.38-1.28,1.06-2.49,1.7-3.69c0.63-1.2,1.46-2.31,2.04-3.53
	c0.84-1.78-0.19-3.55-2.13-3.71c-1.2-0.1-2.41,0.07-3.61-0.01c-1.53-0.1-3.12-0.16-4.58-0.58c-3.32-0.95-4.84-3.1-4.58-6.44
	c0.12-1.49,0.44-3.06,1.11-4.38c0.91-1.8,1.99-3.63,3.42-5.03c4.27-4.17,8.69-8.21,13.18-12.17
	C343.57,306.97,345.74,305.58,348.64,304.68z M295.05,423.06c2.57-3.86,4.44-6.84,8.57-7.29c1.11-0.12,2.05-0.54,2.39-1.63
	c0.42-1.36-0.45-2.23-1.46-2.96c-1.12-0.8-2.28-1.52-3.37-2.37c-1.41-1.09-2.18-2.57-2.43-4.34c-0.42-2.87,0.6-4.25,3.58-4.23
	c5.94,0.01,11.06,2.3,15.57,5.96c0.77,0.61,1.62,1.58,1.73,2.46c0.39,3.26,2.5,5.51,4.39,7.86c0.79,0.98,1.31,1.92,1.51,3.13
	c0.57,3.52,1.25,7.02,1.77,10.56c0.47,3.23-0.01,6.43-0.93,9.55c-0.17,0.58-0.66,1.24-1.2,1.54c-2.31,1.27-5.41-0.05-5.99-2.64
	c-0.32-1.37-0.4-2.82-2.08-3.12c-2.03-0.36-2.64,1.12-3.1,2.68c-0.49,1.64-1.82,1.86-3.28,1.8c-1.19-0.04-2-0.99-1.68-2.04
	c0.41-1.29,1.12-2.51,1.4-3.81c0.15-0.71-0.12-1.8-0.62-2.26c-0.5-0.46-1.61-0.61-2.31-0.41c-1.13,0.33-2.13,1.09-3.21,1.61
	c-1.22,0.6-2.47,1.2-3.75,1.66c-0.38,0.13-1.21-0.07-1.34-0.35c-0.25-0.52-0.38-1.37-0.12-1.81c0.52-0.85,1.3-1.58,2.07-2.23
	c0.78-0.66,1.72-1.14,2.53-1.77c1.48-1.14,1.98-2.31,1.52-3.45c-0.53-1.33-1.73-1.5-2.97-1.58
	C300.21,423.42,298.17,423.28,295.05,423.06z M505,328.45c0.55-0.93,0.74-1.42,1.07-1.78c7.79-8.41,13.22-18.19,17.21-28.81
	c0.46-1.24,1.24-2.4,2.08-3.46c0.49-0.62,1.31-1.17,2.08-1.34c2.84-0.68,5.6-0.36,7.62,1.89c1.35,1.49,2.61,3.21,3.38,5.05
	c0.91,2.17,1.2,4.57,1.81,6.86c1.49,5.69-0.59,10.36-4.43,14.43c-2.75,2.91-6.16,4.91-10,6.13c-4.13,1.32-8.39,2.01-12.72,2.04
	C510.54,329.47,507.94,329.61,505,328.45z M484.39,454.42c-0.33-0.5-0.85-1-1.01-1.58c-0.46-1.67-0.41-3.36,0.43-4.95
	c1.42-2.71,2.83-5.43,4.26-8.14c2.01-3.81,4.67-6.99,8.36-9.43c7.48-4.95,15.75-6.61,24.56-6.46c0.17,0,0.33,0.05,0.51,0.08
	c1.83,0.36,2.64,1.85,1.73,3.39c-2.12,3.6-5.13,5.91-9.54,6.02c-1.03,0.03-2.08-0.03-3.1,0.12c-1.07,0.16-1.94,0.76-2.08,1.94
	c-0.13,1.19,0.55,1.96,1.64,2.24c0.98,0.26,2.04,0.23,3.04,0.44c0.99,0.2,2.1,0.33,2.89,0.87c2.41,1.69,4.18,3.9,5.02,7.27
	c-1.49-0.11-2.71,0.02-3.75-0.33c-1.78-0.61-3.43-1.57-5.18-2.3c-1.41-0.59-2.85-1.21-4.34-1.56c-1.56-0.37-3.1,1.4-2.56,2.91
	c0.46,1.27,1.25,2.4,1.79,3.65c1,2.33,1.99,4.67,2.85,7.05c0.27,0.77,0.26,1.8-0.74,2.16c-0.58,0.21-1.51,0.27-1.93-0.05
	c-1.2-0.9-2.32-1.95-3.27-3.11c-0.63-0.77-0.78-1.92-1.4-2.7c-0.47-0.6-1.36-1.22-2.06-1.21c-0.68,0.02-1.58,0.69-1.94,1.32
	c-0.74,1.32-1.09,2.86-1.82,4.19c-0.73,1.35-1.72,2.59-3.84,2.2c-0.33-0.63-0.91-1.33-1.06-2.11c-0.28-1.49-0.34-3.02-0.43-4.55
	c-0.1-1.67,0.25-3.55-1.98-4.18c-1.32-0.38-2.11,0.6-2.79,3.49C486.33,452.44,486.17,453.8,484.39,454.42z M346.9,294.19
	c-0.82,0.12-1.02,0.22-1.12,0.15c-0.44-0.26-0.9-0.51-1.27-0.87c-5.54-5.41-10.32-11.39-14.23-18.04c-2.67-4.52-3.76-9.47-4.03-14.6
	c-0.27-5.23,1.7-9.62,5.64-13.16c2.15-1.94,4.69-2.82,7.58-2.65c3.51,0.19,5.31,2.01,5.34,5.46c0.01,1.15-0.26,2.33-0.59,3.44
	c-2.23,7.38-2.3,14.7,0.36,22c0.4,1.11,0.82,2.26,0.94,3.44C346.05,284.25,346.45,289.15,346.9,294.19z M503.74,283.57
	c-13.57-4.6-29.21-22.07-29.67-32.59c0.31-0.13,0.62-0.38,0.92-0.37c10.2,0.27,17.94,5,23.93,12.84c0.51,0.65,0.81,1.48,1.11,2.27
	C502.15,271.32,502.75,277.19,503.74,283.57z M382.85,390.65c-1.64-0.42-3.34-0.68-4.9-1.3c-2.02-0.81-2.57-2.19-1.67-4.1
	c2.03-4.3,4.11-8.58,6.3-12.81c1.3-2.5,3.26-2.72,5.38-0.73c2.32,2.19,3.5,4.92,4.06,8.03
	C392.74,383.77,387.45,390.61,382.85,390.65z M354.42,247.31c4.29-8.88,18.33-14.62,28.74-11.25c-0.94,1.26-1.85,2.45-2.74,3.67
	c-2.53,3.45-5.9,5.5-10.1,6.56C365.23,247.58,360.11,247.28,354.42,247.31z M355.07,442.34c1.07-4.45,2.55-8.76,4.21-12.99
	c1.31-3.33,4.81-3.95,7.46-1.52c5.19,4.75,4.73,11.09-1.12,14.9c-0.85,0.56-1.76,1.07-2.69,1.48
	C359.9,445.59,357.32,445.01,355.07,442.34z M461.16,453.08c-4.48,1.63-8.48,1.22-12.3-1.24c-2.58-1.66-3.56-4.01-3.16-6.92
	c0.41-2.98,1.67-5.49,4.63-6.8c3.45-1.53,7.64,0.39,8.49,3.97C459.65,445.68,460.35,449.32,461.16,453.08z M411.13,538.47
	c-0.57-2.46,0.37-4.17,1.9-5.68c1.63-1.62,3.63-2.67,5.86-3.05c5.14-0.91,10.3-0.66,15.38,0.52c1.21,0.28,2.2,0.96,2.24,2.38
	C430.99,537.95,419.42,540.7,411.13,538.47z M316.32,503.77c-6.61-1.97-13.61-7.97-15.86-13.66c-0.62-1.55-0.9-3.26-1.06-4.91
	c-0.08-0.92,0.39-1.87,0.65-2.92c2.55-0.22,4.13,1.07,5.62,2.42c4.87,4.39,8.28,9.82,11.24,15.55
	C317.5,501.37,317.43,502.51,316.32,503.77z M397.03,471.17c2.29-5.41,4.05-7.36,7.91-8.7c1.1-0.38,2.35-0.61,3.48-0.48
	c5.01,0.6,8.96,4.8,9.77,10.48C411.17,472.86,404.27,472.53,397.03,471.17z M443.4,380.51c0.69,2.54,1.2,4.31,1.64,6.09
	c0.98,3.94,1.96,7.87,2.85,11.82c0.31,1.35-0.76,2.37-2.04,2.16c-7.24-1.24-10.22-5.64-8.74-12.73c0.46-2.25,1.49-4.15,3.19-5.66
	C441,381.59,441.98,381.26,443.4,380.51z M407.2,362.61c4.64,0.28,8.75,0.86,13.1,1.04c-0.14,2.03-1.27,3.11-2.55,3.83
	c-1.13,0.64-2.55,1.22-3.8,1.14C410.54,368.4,408.65,366.18,407.2,362.61z"/>
<path class="st7" d="M394.15,420.85c0.17,2.44,1.13,5.1,3.25,7.29c3.82,3.95,8.51,5.62,14,5.14c3.61-0.31,5.84-2.54,7.76-5.33
	c3-4.38,3.09-14.82-2.13-19.98c-3.86-3.81-9.38-4.8-14.21-2.24C397.14,408.74,393.88,414.21,394.15,420.85z M416.98,418.95
	c-0.1,2.86-0.51,5.54-2.48,7.67c-0.88,0.94-2.11,1.9-3.32,2.16c-7.33,1.6-13.88-4.99-12.11-12.05c0.65-2.57,2.15-4.57,4.33-6.12
	c4.33-3.07,9.83-1.77,12.05,3.01C416.22,415.29,416.48,417.17,416.98,418.95z"/>
<path class="st7" d="M407.37,304.27c-1.21,0.05-1.39,0.05-1.56,0.06c-5.24,0.16-5.94,1.06-4.9,6.1c0.93,4.46,1.75,8.96,2.71,13.44
	c2.24,10.44,9.1,12.64,17.24,12.09c5.67-0.38,9.72-2.93,12.62-7.6c2.77-4.47,3.79-9.4,4.11-14.52c0.11-1.74-0.48-3.32-1.36-4.8
	c-0.86-1.44-2.01-1.97-3.77-2.11c-6.16-0.49-12.3-1.24-18.43-1.91C411.46,304.73,408.91,304.44,407.37,304.27z M432.5,313.4
	c0.37,3.49-0.43,6.62-1.71,9.58c-2.63,6.08-5.84,8.93-14.22,8.13c-4.1-0.39-6.73-2.48-7.68-6.38c-1.03-4.28-1.87-8.6-2.73-12.92
	c-0.16-0.76-0.04-1.58-0.06-2.64c1.35,0.04,2.34-0.01,3.33,0.12c4.78,0.6,9.53,1.41,14.32,1.82
	C426.7,311.37,429.49,311.86,432.5,313.4z"/>
<path class="st7" d="M376.56,265.26c0.26,4.07,2.82,6.57,6.3,6.67c3.73,0.12,6.68-2.25,7.17-5.85c0.13-0.98,0.06-2.03-0.09-3.01
	c-0.52-3.39-1.9-5.1-4.39-5.51c-3.13-0.51-5.75,0.22-7.57,3.01C376.93,262.19,376.45,263.93,376.56,265.26z"/>
<path class="st7" d="M456.87,283.04c0.17,4.56,3.4,7.6,7.94,7.46c4.53-0.13,7.97-3.29,7.76-7.12c-0.24-4.26-4.35-8.26-8.38-8.17
	C460.54,275.32,456.73,279.37,456.87,283.04z"/>
<path class="st15" d="M200.22,416.88c-1.52,0.68-3.06,1.4-4.63,2.07c-4,1.7-8.15,0.55-10.58-3.01c-0.8-1.17-1.33-2.53-1.94-3.83
	c-0.37-0.78-0.57-1.64-0.95-2.4c-0.75-1.49-2.35-1.86-3.56-0.82c-0.75,0.65-1.35,1.5-2.12,2.13c-3.23,2.64-8.01,2.37-10.88-0.67
	c-2.68-2.83-3.92-6.34-3.98-10.19c-0.03-1.85,0.38-3.7,0.65-5.55c0.1-0.71,0.49-1.39,0.5-2.09c0-0.65-0.13-1.54-0.57-1.91
	c-0.42-0.36-1.37-0.44-1.94-0.22c-1.06,0.39-2.01,1.07-3.01,1.63c-2.33,1.3-4.83,1.66-7.44,1.37c-5.12-0.57-7.75-3.43-7.61-8.58
	c0.04-1.69,0.54-3.39,0.87-5.07c0.11-0.55,0.54-1.1,0.49-1.62c-0.05-0.65-0.3-1.4-0.73-1.86c-0.29-0.31-1.1-0.31-1.58-0.16
	c-0.66,0.2-1.21,0.73-1.84,1.06c-2.28,1.18-4.48,2.59-6.87,3.47c-6.88,2.53-12.37-1.24-12.74-8.69c-0.08-1.69,0.33-3.41,0.56-5.11
	c0.1-0.7,0.53-1.4,0.47-2.07c-0.06-0.62-0.46-1.45-0.94-1.7c-0.51-0.25-1.34,0-1.96,0.22c-0.34,0.12-0.54,0.63-0.81,0.97
	c-2.81,3.56-6.71,5.24-10.88,6.43c-0.27,0.08-0.56,0.13-0.83,0.17c-5.8,0.85-9.77-2.37-10.06-8.3c-0.13-2.73,0.03-5.46,0.84-8.12
	c0.33-1.08,0.53-2.25,0.57-3.39c0.06-1.46-1.48-2.32-2.72-1.55c-0.84,0.52-1.54,1.28-2.38,1.82c-1.8,1.14-3.59,2.34-5.5,3.27
	c-1.98,0.96-4.14,0.85-6.29,0.38c-3.23-0.69-5.15-2.57-5.4-6.78c-0.24-4.06,1.34-7.59,3.87-10.7c0.68-0.83,1.56-1.16,2.61-1.26
	c1.48-0.15,2.79-0.76,3.61-2.05c0.35-0.55,0.62-1.33,0.54-1.95c-0.12-0.96-1.01-1.46-1.87-1.46c-0.96-0.01-2.02,0.13-2.87,0.55
	c-1.51,0.76-2.92,1.11-4.44,0.16c-1.77-1.13-3.01-2.69-3.27-4.82c-0.47-3.91,0.34-7.44,3.25-10.29c2.87-2.81,6.33-4.46,10.24-4.94
	c3.1-0.38,6.24-0.32,9.36-0.45c0.57-0.02,1.15,0.1,1.7,0.03c1.42-0.17,2.45-1.41,1.88-2.73c-0.93-2.16-0.2-3.97,0.71-5.75
	c2.39-4.74,5.93-8.45,10.48-11.09c1.33-0.77,2.89-1.26,4.41-1.52c4.7-0.83,7.21,0.43,9.61,4.57c2.7,4.65,3.21,4.82,7.35,1.57
	c3.4-2.68,7.16-4.01,11.45-4.18c3.14-0.12,6.3-0.34,9.37,0.43c1.9,0.48,3.84,1.15,5.52,2.15c2.59,1.55,4.08,3.97,4.01,7.15
	c-0.02,0.72-0.16,1.47-0.01,2.15c0.15,0.64,0.49,1.41,1,1.77c0.77,0.53,1.63,0.19,2.32-0.44c0.21-0.2,0.44-0.38,0.61-0.6
	c3.58-4.28,8.35-4.68,13.31-3.87c3.4,0.56,6.46,2.15,9.12,4.48c2.64,2.3,4,5.13,4.04,8.68c0.04,4.81,0.08,4.84,4.53,6.1
	c5.46,1.55,10.24,4.32,14.4,8.16c1.14,1.05,2.21,2.28,2.97,3.63c1.72,3,1.32,5.36-1.07,7.82c-0.5,0.51-1.11,0.92-1.59,1.44
	c-1.17,1.27-1.04,2.76,0.34,3.68c0.83,0.56,1.76,0.95,2.63,1.45c2.64,1.47,5.1,3.19,7.16,5.4c0.97,1.04,1.94,2.15,2.63,3.38
	c1.63,2.9,1.51,5.79-0.58,8.46c-0.71,0.9-1.52,1.72-2.27,2.58c-1.61,1.86-1.79,3.88-0.56,5.97c0.87,1.48,1.86,2.9,2.78,4.35
	c0.92,1.46,1.89,2.89,2.66,4.42c0.5,1,0.77,2.16,0.96,3.27c0.24,1.43-0.34,2.58-1.69,3.15c-1.17,0.51-2.4,0.91-3.62,1.29
	c-1.09,0.33-2.24,0.48-3.3,0.88c-2.57,0.96-3.38,3.02-2.14,5.53c0.5,1.02,1.21,1.94,1.89,2.86c0.76,1.05,1.63,2.01,2.36,3.06
	c2.8,3.98,2.73,6.89-0.44,10.51c-3.65,4.17-8.11,6.74-13.84,6.54c-1.13-0.04-2.28,0.25-3.4,0.12
	C202.2,417.69,201.29,417.22,200.22,416.88z"/>
<path class="st16" d="M76.74,357.89c5.14,1.89,9.94,1.24,14.91-1.85c-0.03,2.36-0.04,3.89-0.09,5.41c-0.08,2.65,0.42,5.17,1.71,7.48
	c1.71,3.06,4.2,4.97,7.73,5.52c3.51,0.55,6.81-0.05,10.03-1.45c1.41-0.61,2.81-1.21,4.52-1.94c0.25,0.95,0.42,1.6,0.58,2.26
	c0.28,1.11,0.46,2.26,0.86,3.33c2.54,6.76,7.64,9.79,15.38,7.97c1.78-0.42,3.48-1.24,5.52-1.98c0.14,0.91,0.3,1.67,0.38,2.44
	c0.75,8.12,4.62,11.83,12.77,12c2.11,0.04,4.22-0.34,6.49-0.54c0.88,1.04,0.36,2.38,0.35,3.58c-0.04,3.58,0.99,6.84,2.74,9.85
	c1.71,2.92,4.01,5.16,7.43,6.11c3.05,0.85,5.91,0.7,8.71-0.78c0.85-0.45,1.71-0.92,2.68-1.44c0.81,1.38,1.47,2.64,2.25,3.84
	c2.46,3.74,5.91,5.7,10.38,5.85c1.92,0.07,3.68-0.37,5.33-1.32c0.98-0.56,1.93-1.18,2.82-1.73c1.05,0.59,0.61,1.32,0.39,1.91
	c-1.99,4.96-4.57,9.62-7.58,14.01c-3.57,5.21-7.25,10.34-11.6,14.92c-6.6,6.93-14,12.74-22.76,16.59
	c-7.55,3.31-15.43,4.92-23.74,4.63c-7.74-0.27-15.35-1.19-22.89-2.9c-8.45-1.92-16.06-5.62-23.25-10.54
	c-7.28-4.97-12.75-11.46-17.32-18.84c-5.28-8.51-7.55-18.01-8.14-27.89c-0.66-11.13,0.38-22.15,2.99-33.01
	C68.14,371.77,71.79,364.11,76.74,357.89z M99.68,426.35c-0.13,4.21,0.29,8.36,1.27,12.42c1.56,6.42,7.81,12.15,14.02,13.02
	c7.52,1.05,13.6-1.37,17.53-8.01c2.47-4.18,4.51-8.65,6.45-13.12c1.41-3.26,0.52-5.07-2.66-6.63c-0.89-0.43-1.84-0.77-2.79-1.07
	c-2.72-0.85-5.45-1.67-8.18-2.47c-7.55-2.22-15.39-2.81-23.1-4.19c-0.45-0.08-1.47,0.65-1.54,1.12
	C100.25,420.39,99.99,423.38,99.68,426.35z M96.77,396.8c-0.05-0.5-0.09-1.21-0.21-1.92c-0.32-1.98-1.27-3.57-3.19-4.23
	c-2.16-0.75-4.25-0.35-6.02,1.16c-2.27,1.93-3.19,6.98-1.77,9.59c1.05,1.95,2.7,2.89,4.93,2.71
	C93.9,403.82,96.64,400.73,96.77,396.8z M152.23,419.26c-0.4,3.29,1.97,7.03,4.63,7.31c2.65,0.28,6.07-2.17,6.42-4.59
	c0.48-3.3-1.77-6.64-4.78-7.11C155.31,414.38,152.59,416.29,152.23,419.26z"/>
<path class="st12" d="M175.22,575.54c-2.55,2.02-8.71,5.05-11.4,5.62c-2.28,0.48-3.55-0.02-4.61-2.07c-0.73-1.4-1.3-2.88-1.8-4.39
	c-0.65-1.9-1.12-3.86-1.72-5.78c-0.79-2.53-1.28-2.89-3.93-3.06c-0.71-0.04-1.43-0.14-2.14-0.08c-6.33,0.55-12.48-0.78-18.66-1.75
	c-3.38-0.54-6.78-0.97-10.15-1.52c-2.1-0.34-4.22-0.7-6.27-1.3c-1.69-0.5-2.99,0.04-3.85,1.74c-0.32,0.64-0.54,1.34-0.84,1.98
	c-2.11,4.56-4.15,9.16-6.41,13.65c-1.97,3.92-2.61,4.19-6.75,2.97c-3.81-1.11-7.55-2.5-11.02-3.67c-0.86-1.53-0.49-2.66-0.06-3.7
	c0.71-1.73,1.56-3.4,2.37-5.08c1.92-4.02,3.83-8.04,5.76-12.05c0.8-1.66,1.68-3.29,2.62-5.12c2.87,0.37,5.53,0.77,8.2,1.06
	c15.48,1.69,30.98,2.91,46.51,0.68c4.2-0.6,8.29-1.96,12.82-3.05c0.35,0.48,1.02,1.2,1.41,2.04c3.34,7.32,6.62,14.67,9.9,22.01
	C175.29,574.92,175.21,575.25,175.22,575.54z"/>
<path class="st17" d="M94.66,530.36c0-4.79,1-9.52,1.84-14.28c2.19-0.29,3.96,0.17,5.73,0.69c8.67,2.54,17.55,3.66,26.54,4.03
	c2.99,0.12,5.97,0.11,8.92-0.56c4.17-0.94,8.4-1.44,12.67-1.75c3.23-0.24,6.42-1.01,9.64-1.54c1.34,2.64,3.34,11.16,3.64,15.7
	c-10.91,3.97-22.16,4.65-33.6,3.32c-9.62-1.12-19.23-2.29-28.83-3.51C99.01,532.2,96.66,532.17,94.66,530.36z"/>
<path class="st18" d="M97.27,511.41c0.28-4.1,0.97-8.11,1.84-12.19c6.76,0.84,13.1,1.55,19.42,2.44c6.25,0.88,12.47,0.99,18.71-0.04
	c0.84-0.14,1.69-0.29,2.54-0.31c5.54-0.09,11.06-0.15,16.79-0.22c1.4,3.42,1.95,7.09,2.91,10.87c-0.69,0.47-1.3,1.08-2.04,1.35
	c-2.13,0.82-4.33,1.26-6.64,1.43c-3.82,0.28-7.69,0.56-11.43,1.36c-4.95,1.05-9.86,1.11-14.85,0.75
	c-8.84-0.64-17.42-2.64-25.98-4.83C98.15,511.95,97.81,511.69,97.27,511.41z"/>
<path class="st18" d="M93.15,546.94c-0.1-4.29,0.12-7.97,0.82-11.83c1.98,0.32,3.76,0.66,5.57,0.9c8.2,1.07,16.39,2.25,24.61,3.11
	c5.95,0.63,11.94,1.08,17.92,1.15c5.99,0.08,11.94-0.8,17.75-2.38c1.5-0.41,2.95-0.88,4.39-0.76c0.22,0.28,0.37,0.38,0.39,0.51
	c1.15,8.44,0.41,8.16-6.4,10.54c-2.8,0.98-5.79,1.54-8.74,1.95c-9.93,1.37-19.9,1.15-29.89,0.51c-7.4-0.47-14.79-1.15-22.08-2.52
	C96.13,547.84,94.8,547.38,93.15,546.94z"/>
<path class="st16" d="M246.19,431.22c0.88,1.7,0.43,3.06-0.14,4.4c-0.39,0.93-0.93,1.79-1.3,2.72c-0.34,0.85-0.31,1.81,0.51,2.31
	c0.51,0.31,1.38,0.37,1.96,0.17c1.34-0.46,2.58-1.23,3.9-1.74c0.77-0.31,1.64-0.37,2.36-0.52c1.2,0.89,0.9,1.91,0.49,2.8
	c-0.73,1.63-2.01,2.77-3.56,3.61c-0.88,0.47-1.79,0.89-2.66,1.39c-0.79,0.45-1.42,1.17-1.14,2.09c0.17,0.6,0.73,1.26,1.29,1.54
	c1.15,0.56,2.43,0.81,3.61,1.32c1,0.44,2.13,0.83,2.42,2.12c-0.98,1.45-2.58,1.16-3.9,1.59c-0.94,0.3-1.97,0.35-2.89,0.68
	c-1.16,0.42-1.57,1.78-0.9,2.86c0.53,0.85,1.21,1.6,1.75,2.44c0.3,0.47,0.43,1.05,0.63,1.55c-1.5,1.88-3.21,2.11-5.38,1.41
	c-3.77-1.21-6.96-3.23-9.55-6.23c-0.28-0.32-0.6-0.64-0.79-1.01c-3.18-6.28-6.3-12.57-5.26-20c0.27-1.88,0.77-3.65,1.72-5.28
	c0.35-0.58,0.92-1.03,1.43-1.57c2.73,1.29,3.6,3.73,4.45,6.17c0.33,0.94,0.43,1.97,0.83,2.86c0.49,1.1,2.23,1.15,2.83,0.09
	c0.42-0.74,0.62-1.59,0.95-2.37C241.11,433.59,242.7,432.21,246.19,431.22z"/>
<path class="st16" d="M21.41,397.02c3.22,1.12,6.55,3.96,8.53,7.33c0.43,0.74,0.71,1.57,1.13,2.32c0.45,0.8,1.12,1.35,2.09,1.19
	c1.02-0.17,1.33-0.96,1.35-1.89c0.02-0.86-0.12-1.73,0-2.57c0.42-3.16,3.37-5.65,6.57-5.65c1.1,0,2.03,0.68,2.01,1.78
	c-0.03,1.71,0,3.51-0.51,5.1c-1.09,3.41-2.49,6.72-3.82,10.04c-0.65,1.61-1.46,3.11-3.24,3.82c-0.84,0.34-1.06,1.17-1.28,2.07
	c-1.34,5.35-6.3,9.32-11.73,9.51c-0.38,0.02-0.78-0.24-1.43-0.46c0.28-0.99,0.5-1.91,0.83-2.81c0.24-0.67,0.76-1.26,0.91-1.93
	c0.14-0.63,0.13-1.44-0.15-2c-0.44-0.88-1.39-0.86-2.26-0.66c-0.83,0.2-1.62,0.59-2.45,0.71c-1.71,0.24-3.45,0.24-4.94-0.78
	c-0.54-0.37-1.26-1.12-1.19-1.59c0.12-0.73,0.69-1.71,1.33-1.97c1.14-0.46,2.47-0.43,3.7-0.7c1.12-0.24,1.55-2.02,0.7-2.8
	c-0.41-0.37-0.95-0.59-1.41-0.9c-0.7-0.48-1.45-0.92-2.06-1.5c-0.75-0.71-1.25-1.59-0.77-2.69c0.48-1.12,1.23-2.05,2.51-2.02
	c1.26,0.02,2.54,0.24,3.77,0.54c0.81,0.2,1.56,0.67,2.32,1.07c0.87,0.47,1.66,0.39,2.34-0.29c0.7-0.7,0.59-1.51,0.16-2.36
	c-1-2.04-2.02-4.09-2.89-6.2C20.98,399.39,21.1,399.35,21.41,397.02z"/>
<path class="st17" d="M154.26,488.27c1.26,2.69,1.11,5.43,1.68,8.27c-0.95,0.32-1.71,0.75-2.49,0.81c-1.85,0.12-3.71-0.03-5.55,0.06
	c-4.26,0.2-8.52,0.44-12.77,0.74c-3.83,0.28-7.64,0.7-11.5,0.22c-5.79-0.72-11.6-1.3-17.4-1.95c-2.11-0.24-4.21-0.56-6.26-1.6
	c-0.03-2.98,0.77-5.71,1.22-8.71c0.8-0.02,1.51-0.2,2.12-0.02c10.31,2.89,20.85,2.63,31.39,2.55c2.27-0.01,4.55,0.05,6.8,0.3
	c2.71,0.3,5.38,0.44,8.07-0.11C151.08,488.5,152.63,488.45,154.26,488.27z"/>
<path class="st18" d="M153.5,484.06c-3.38,1.09-6.57,1.44-9.86,1.25c-3.97-0.23-7.95-0.5-11.92-0.42c-7.41,0.15-14.8,0.1-22.11-1.26
	c-2.48-0.46-5.04-0.77-7.46-2.3c0.52-3.2,0.38-6.49,1.97-9.77c15.29,4.11,30.66,6.27,46.51,3.4
	C151.98,477.88,152.73,480.87,153.5,484.06z"/>
<path class="st16" d="M59.43,393.25c-2.36-0.73-3.52-2.72-4.55-4.75c-1.78-3.51-2.62-7.31-2.83-11.21
	c-0.17-3.17,0.04-6.33,0.92-9.41c0.6-2.11,1.49-4.05,3.02-5.64c1.43-1.49,3.12-1.89,5.09-1.25c3.7,1.19,5.81,4.89,4.44,8.49
	c-2.67,7.05-4.17,14.34-5.12,21.78c-0.06,0.42-0.17,0.85-0.34,1.24C59.96,392.75,59.71,392.93,59.43,393.25z"/>
<path class="st18" d="M38.65,594.72c0.16-0.94,0.22-1.81,0.46-2.64c1.34-4.74,3.47-9.12,6.16-13.22c1.05-1.61,2.57-2.17,4.39-2.21
	c1.41-0.04,2.48,0.43,3.1,1.8c0.42,0.92,0.89,1.81,1.42,2.66c0.75,1.18,0.83,2.39,0.49,3.72c-0.35,1.4-0.6,2.81-0.92,4.22
	c-1.05,4.59-3.67,8.04-7.45,10.69c-1.68,1.17-3.44,1.44-5.23,0.46c-1.81-0.98-2.49-2.68-2.45-4.7
	C38.63,595.21,38.65,594.92,38.65,594.72z"/>
<path class="st16" d="M194.15,441.89c2.24-3.71,4.15-6.7,5.88-9.81c1.66-2.98,3.12-6.08,4.7-9.19c2.56-0.22,4.94,0.19,7.2,1.03
	c2.9,1.08,3.86,3.11,3.13,6.17c-0.19,0.82-0.56,1.63-0.98,2.37c-1.07,1.9-2.5,3.51-4.29,4.74
	C205.33,440.25,200.36,441.68,194.15,441.89z"/>
<path class="st18" d="M211.83,587.2c1.68,1.56,3.23,3.03,4.8,4.49c2.36,2.19,3.4,4.93,3.26,8.11c-0.08,1.71-0.25,3.45-0.67,5.1
	c-0.23,0.91-0.94,1.75-1.6,2.47c-0.68,0.75-1.98,0.73-2.71,0.01c-0.6-0.59-1.2-1.27-1.54-2.02c-2.13-4.73-3.48-9.71-4.1-14.87
	C209.09,588.85,209.73,587.7,211.83,587.2z"/>
<path class="st19" d="M84.3,399.91c-6.43-3.42-14.68-2.07-18.85,4.22c-3,4.54-2.18,11.18,0.82,15.7c1.54,3.28,4.51,5.92,7.95,6.82
	c7.17,1.87,13.52-2.35,16.38-8.83C93.42,411.43,90.27,403.08,84.3,399.91z"/>
<path class="st19" d="M180.95,431.94c-2.15-4.88-6.61-7.34-11.54-7.52c-2.73-0.46-5.61-0.17-8.13,0.89
	c-7.88,3.3-9.17,13.4-4.39,19.8c4.32,5.8,12.79,7.96,19,3.83C181.44,445.25,183.69,438.15,180.95,431.94z"/>
<path class="st7" d="M69.04,362.59c1.56-2.58,2.89-4.79,4.12-6.82c-0.07-0.4-0.05-0.57-0.13-0.67c-3.64-5.44-2.75-10.9-0.07-16.37
	c0.5-1.03,1.11-2,1.74-3.14c-0.79-0.68-1.53-1.32-2.28-1.96c-2.29-1.98-3.53-4.53-3.73-7.52c-0.3-4.5,0.87-8.57,4.02-11.91
	c4.5-4.77,10.2-6.69,16.55-6.95c1.55-0.06,3.12,0.1,4.46,0.16c0.43-0.39,0.78-0.55,0.81-0.77c1.11-6.63,4.97-11.5,9.85-15.73
	c0.97-0.85,2.02-1.61,3.1-2.3c2.7-1.73,5.68-2.66,8.89-2.78c4-0.15,7.22,1.38,9.67,4.55c0.78,1.01,1.49,2.06,2.23,3.1
	c0.53-0.26,0.95-0.38,1.28-0.63c8.23-6.11,17.33-5.95,26.58-3.49c3.99,1.05,7.04,3.73,8.74,7.71c0.22,0.52,0.49,1.02,0.68,1.43
	c1.06,0.65,1.73-0.15,2.46-0.44c8.11-3.4,18.43-0.96,24.6,6.08c1.73,1.98,2.85,4.29,3.19,6.95c0.17,1.42,0.35,2.84,0.54,4.43
	c1.08,0.41,2.13,0.82,3.18,1.19c5.32,1.86,10.1,4.67,14.25,8.52c1.05,0.97,2.05,2.02,2.88,3.18c2.92,4.08,3,8.12,0.34,12.44
	c-0.22,0.37-0.47,0.72-0.85,1.29c0.73,0.59,1.42,1.3,2.24,1.79c2.6,1.57,4.92,3.5,6.86,5.8c1.27,1.51,2.45,3.23,3.16,5.06
	c1.45,3.73,0.89,7.36-1.54,10.6c-0.94,1.25-1.97,2.42-3.1,3.81c0.89,1.43,1.7,2.76,2.52,4.08c1.06,1.7,2.21,3.35,3.18,5.12
	c0.61,1.12,1.09,2.36,1.38,3.61c1.05,4.44-0.36,7.18-4.58,8.91c-1.18,0.49-2.46,0.71-3.69,1.09c-0.8,0.25-1.57,0.58-2.55,0.94
	c0.55,0.91,0.94,1.66,1.43,2.34c0.76,1.04,1.61,2.02,2.36,3.07c3.86,5.38,3.66,10.34-0.63,15.31c-1.79,2.08-3.86,3.84-6.27,5.17
	c-0.84,0.47-1.65,1.03-2.5,1.56c0.32,0.38,0.47,0.64,0.68,0.8c1.77,1.29,3.36,2.68,3.7,5.05c0.4,2.79,0.06,5.46-1.37,7.92
	c-1.99,3.47-4.8,6.09-8.33,7.85c-4.39,2.19-9.01,3.62-13.98,3.52c-1.13-0.02-2.27-0.09-3.6-0.14c-0.81,0.92-1.69,1.85-2.49,2.84
	c-7.54,9.44-16.53,17.08-27.32,22.49c-0.24,0.12-0.44,0.36-0.89,0.75c0.57,0.4,1.03,0.9,1.58,1.09c10.7,3.64,21.53,4.01,32.47,1.24
	c10.17-2.57,19.79-6.5,28.74-12.04c1.84-1.13,3.58-2.35,5.02-4.43c-0.91-2.29-1.89-4.66-2.8-7.04c-2.01-5.21-2.85-10.54-1.52-16.08
	c0.55-2.26,1.36-4.41,2.86-6.21c2.07-2.48,4.71-2.74,7.1-0.56c1.34,1.22,2.43,2.73,3.75,4.22c0.96-0.79,1.76-1.61,2.71-2.21
	c1.2-0.76,2.44-1.58,3.77-1.96c3.11-0.87,5.34,0.7,5.84,3.93c0.16,0.98,0.12,1.99,0.19,3.17c1.13,0.04,2.22,0.08,3.3,0.13
	c2.45,0.11,3.65,1.11,4.21,3.49c0.56,2.45-0.22,4.55-1.64,6.47c-0.75,1.02-1.62,1.93-2.59,3.08c0.96,0.83,1.87,1.49,2.64,2.27
	c2.65,2.69,2.22,5.66-1.07,7.35c-1.12,0.57-2.33,0.96-3.53,1.44c0.24,1.69,0.64,3.21,0.66,4.74c0.03,2.36-0.63,2.95-2.75,3.77
	c-4.97,1.92-9.24,0.04-13.37-2.43c-1.82-1.09-3.41-2.56-5.26-3.98c-1.59,1.2-3.09,2.51-4.75,3.54
	c-12.18,7.55-25.24,12.73-39.49,14.55c-9.25,1.18-18.19-0.26-26.93-3.31c-1.45-0.51-2.9-1.03-4.76-1.69
	c0.02,1.07-0.12,1.79,0.09,2.37c2.33,6.54,3.3,13.36,4.62,20.14c1.73,8.9,3.96,17.69,5.89,26.54c1.03,4.77,1.99,9.58,2.74,14.41
	c0.49,3.11,0.71,6.33-0.65,9.36c-0.61,1.37,0.03,2.49,0.58,3.68c2.2,4.69,4.36,9.38,6.52,14.08c0.54,1.17,1.04,2.37,1.53,3.56
	c0.86,2.14,1.74,4.18,3.68,5.68c1.47,1.14,1.14,2.89-0.48,3.92c-1.92,1.22-3.88,2.38-6.03,3.7c0.19,1.01,0.25,2,0.57,2.91
	c1.06,3.13,2.03,6.32,3.38,9.32c1.11,2.46,2.5,4.89,4.18,6.98c3.34,4.15,7.96,4.75,12.1,1.44c5.19-4.15,9.5-9.1,11.87-15.52
	c1.29-3.51,5.6-4.81,8.39-2.44c2.17,1.85,4.22,3.88,6.16,5.99c0.95,1.03,1.71,2.33,2.24,3.63c1.76,4.33,1.53,8.76-0.04,13.09
	c-1.16,3.21-3.58,4.83-6.44,4.74c-1.99-0.07-3.65-0.83-4.75-2.48c-0.87-1.3-1.64-2.72-2.17-4.19c-0.9-2.43-1.56-4.92-2.35-7.4
	c-0.25-0.77-0.57-1.51-0.98-2.59c-1.15,1.39-2,2.53-2.97,3.56c-1.86,1.98-3.67,4.04-5.7,5.84c-6.73,5.96-14.76,3.93-19-2.19
	c-1.62-2.35-3.04-4.88-4.19-7.5c-1.33-3.02-2.24-6.21-3.35-9.33c-0.23-0.64-0.56-1.25-0.93-2.06c-1.51,0.48-2.84,0.95-4.17,1.33
	c-4.82,1.38-8.01-0.06-10.11-4.66c-0.77-1.69-1.29-3.51-1.9-5.27c-0.52-1.49-0.99-2.99-1.53-4.61c-1.02-0.16-2-0.52-2.94-0.42
	c-5.63,0.54-11.09-0.77-16.58-1.54c-4.65-0.65-9.24-1.8-13.95-2.08c-1.41-0.09-2.79-0.46-4.41-0.74c-0.39,0.75-0.81,1.46-1.16,2.19
	c-2.26,4.65-4.37,9.38-6.8,13.94c-2.49,4.67-4,5.21-9.03,4.12c-0.97-0.21-1.94-0.37-2.94-0.55c-1.13,1.14-1.29,2.61-1.71,3.96
	c-0.97,3.04-2.37,5.85-4.2,8.45c-4.11,5.87-10.94,6.44-15.99,3.94c-2.99-1.47-5.5-3.6-7.73-6.06c-2.02-2.22-3.96-4.51-5.9-6.71
	c-1.1-0.02-1.12,0.79-1.26,1.46c-1.23,5.67-4.57,9.83-9.23,13.02c-2.84,1.95-5.86,2.23-8.87,0.46c-2.96-1.74-4.44-4.4-4.34-7.87
	c0.03-1.29,0.1-2.62,0.42-3.85c1.46-5.46,3.88-10.49,6.97-15.22c1.84-2.81,4.33-4.07,7.61-3.8c1.54,0.13,3.08,0.3,4.38,0.42
	c1.77,3.19,3.39,6.04,4.94,8.93c2.55,4.73,5.97,8.78,9.86,12.41c1.35,1.26,2.89,2.38,4.51,3.25c4.44,2.38,8.69,1.33,11.71-2.75
	c2.45-3.3,3.71-7.08,4.61-11.25c-0.9-0.45-1.74-0.93-2.62-1.3c-1.32-0.55-2.7-0.94-4-1.53c-1.59-0.73-2.47-2.06-2.15-3.83
	c0.33-1.82,0.81-3.65,1.47-5.38c0.72-1.87,1.73-3.63,2.6-5.44c2.35-4.92,4.69-9.85,7.12-14.95c-0.44-0.47-0.75-0.93-1.17-1.22
	c-1.3-0.89-1.83-2.19-1.9-3.68c-0.06-1.3-0.05-2.59,0.07-3.89c0.91-10.77,2.45-21.45,4.16-32.12c1.32-8.25,2.59-16.5,3.9-24.75
	c0.47-2.96,0.98-5.92,1.51-9.12c-1.07-0.28-1.85-0.53-2.64-0.69c-3.24-0.66-6.31-1.74-9.32-3.09c-11.92-5.3-22.27-12.79-31.08-22.48
	c-6.86-7.54-13.57-15.17-19.18-23.74c-0.07-0.11-0.22-0.16-0.36-0.24c-1.11-0.21-1.44,0.77-1.86,1.42
	c-2.48,3.83-6.29,5.23-10.48,5.96c-0.83,0.15-1.71,0.14-2.55,0.03c-2.84-0.35-3.97-1.56-4.22-4.46c-0.05-0.56,0.04-1.13,0.07-1.96
	c-1.15-0.3-2.24-0.52-3.27-0.87c-1.2-0.41-2.48-0.77-3.53-1.45c-2.82-1.86-3.35-4.99-1.44-7.88c0.47-0.7,1.06-1.32,1.69-2.07
	c-1.64-2.66-2.03-5.34-0.11-8.05c1.41-1.98,2.36-2.46,7.58-3.56c-0.19-0.81-0.46-1.61-0.53-2.43c-0.14-1.71-0.39-3.45-0.19-5.14
	c0.3-2.62,2.06-3.71,4.61-2.98c1.2,0.35,2.4,0.96,3.43,1.69c1.41,0.97,2.66,2.17,3.98,3.27c0.64,0.53,1.27,1.07,2.01,1.69
	c0.9-0.98,1.65-1.83,2.43-2.66c1.88-1.98,4.27-2.86,6.89-3.07c3.17-0.26,5.44,1.68,5.96,4.9c0.4,2.48,0.03,4.92-0.66,7.26
	c-1.65,5.52-3.7,10.89-7.28,15.67c0.55,2.54,2.13,4.6,3.61,6.67c5.26,7.39,11.19,14.21,17.44,20.72c3.26,3.4,6.8,6.58,10.49,9.52
	c6.18,4.94,13.06,8.74,20.38,11.72c1.96,0.8,4.08,1.25,6.16,1.7c1.14,0.25,1.28,0.03,2.52-2.06c-0.8-0.51-1.56-1.11-2.42-1.51
	c-5.73-2.7-11.01-6.21-15.73-10.36c-8.17-7.2-14.37-15.95-17.95-26.41c-3.06-8.95-4.29-18.17-3.93-27.63c0.08-2,0.15-4.01,0.23-6.03
	c-7.96-3.7-10.11-10.83-11.11-18.44c-0.58-4.41-0.44-8.95,1.06-13.25c0.66-1.88,1.49-3.77,2.63-5.39c3.3-4.69,9.07-5.36,13.48-1.67
	C66.79,360.17,67.72,361.26,69.04,362.59z M200.22,416.88c1.07,0.35,1.98,0.82,2.94,0.92c1.12,0.13,2.26-0.16,3.4-0.12
	c5.73,0.21,10.19-2.36,13.84-6.54c3.17-3.62,3.24-6.52,0.44-10.51c-0.74-1.06-1.6-2.02-2.36-3.07c-0.67-0.93-1.38-1.85-1.89-2.86
	c-1.24-2.51-0.43-4.57,2.14-5.53c1.06-0.39,2.21-0.54,3.3-0.88c1.22-0.38,2.44-0.78,3.62-1.29c1.34-0.58,1.93-1.72,1.69-3.15
	c-0.19-1.12-0.46-2.27-0.96-3.27c-0.76-1.54-1.74-2.97-2.66-4.42c-0.91-1.46-1.9-2.87-2.78-4.35c-1.23-2.1-1.06-4.12,0.56-5.97
	c0.76-0.86,1.57-1.68,2.27-2.58c2.09-2.68,2.21-5.57,0.58-8.46c-0.69-1.23-1.65-2.34-2.63-3.38c-2.06-2.22-4.53-3.93-7.16-5.4
	c-0.87-0.48-1.8-0.89-2.63-1.44c-1.38-0.92-1.51-2.4-0.35-3.68c0.48-0.53,1.09-0.92,1.59-1.44c2.38-2.46,2.78-4.82,1.07-7.82
	c-0.77-1.34-1.84-2.58-2.97-3.63c-4.16-3.84-8.94-6.62-14.4-8.16c-4.45-1.25-4.49-1.29-4.53-6.1c-0.02-3.55-1.4-6.38-4.04-8.68
	c-2.65-2.33-5.71-3.92-9.12-4.48c-4.96-0.81-9.73-0.41-13.31,3.87c-0.18,0.22-0.41,0.4-0.62,0.6c-0.68,0.64-1.55,0.97-2.32,0.44
	c-0.5-0.35-0.84-1.12-0.99-1.77c-0.16-0.68-0.01-1.42,0.01-2.14c0.06-3.18-1.43-5.6-4.01-7.15c-1.68-1.01-3.62-1.68-5.52-2.15
	c-3.07-0.77-6.23-0.55-9.37-0.43c-4.28,0.17-8.05,1.5-11.45,4.18c-4.13,3.26-4.65,3.07-7.35-1.57c-2.4-4.13-4.91-5.39-9.61-4.57
	c-1.52,0.27-3.08,0.75-4.41,1.52c-4.55,2.64-8.09,6.35-10.48,11.09c-0.9,1.79-1.64,3.6-0.71,5.75c0.57,1.32-0.46,2.56-1.88,2.73
	c-0.56,0.07-1.13-0.05-1.7-0.03c-3.13,0.13-6.27,0.07-9.36,0.45c-3.9,0.48-7.38,2.12-10.24,4.93c-2.91,2.85-3.73,6.38-3.25,10.29
	c0.25,2.13,1.49,3.69,3.27,4.82c1.51,0.96,2.93,0.61,4.44-0.16c0.84-0.43,1.91-0.57,2.87-0.55c0.86,0.01,1.76,0.51,1.87,1.46
	c0.07,0.63-0.18,1.4-0.54,1.95c-0.83,1.28-2.13,1.9-3.61,2.05c-1.05,0.1-1.93,0.43-2.61,1.26c-2.53,3.11-4.11,6.65-3.87,10.7
	c0.25,4.21,2.17,6.08,5.4,6.78c2.16,0.47,4.3,0.58,6.29-0.38c1.91-0.92,3.7-2.13,5.5-3.27c0.84-0.53,1.54-1.29,2.38-1.82
	c1.24-0.77,2.78,0.09,2.72,1.55c-0.04,1.14-0.23,2.3-0.57,3.39c-0.81,2.66-0.97,5.4-0.84,8.12c0.29,5.94,4.25,9.15,10.06,8.3
	c0.29-0.04,0.56-0.09,0.83-0.17c4.18-1.2,8.08-2.87,10.88-6.43c0.26-0.33,0.47-0.85,0.81-0.97c0.63-0.22,1.46-0.48,1.96-0.22
	c0.49,0.24,0.88,1.08,0.94,1.7c0.06,0.67-0.37,1.37-0.47,2.07c-0.24,1.7-0.65,3.42-0.56,5.11c0.37,7.45,5.86,11.22,12.74,8.69
	c2.39-0.87,4.59-2.28,6.87-3.47c0.63-0.33,1.18-0.85,1.84-1.06c0.49-0.15,1.29-0.15,1.58,0.16c0.43,0.44,0.68,1.21,0.73,1.86
	c0.04,0.53-0.38,1.07-0.49,1.62c-0.33,1.68-0.82,3.38-0.87,5.07c-0.13,5.15,2.49,8.01,7.61,8.58c2.62,0.3,5.11-0.06,7.44-1.37
	c1-0.56,1.95-1.23,3.01-1.63c0.57-0.21,1.51-0.14,1.94,0.22c0.43,0.37,0.58,1.25,0.57,1.9c0,0.7-0.4,1.38-0.5,2.08
	c-0.27,1.85-0.67,3.7-0.65,5.55c0.05,3.86,1.3,7.36,3.98,10.19c2.87,3.04,7.64,3.3,10.88,0.67c0.77-0.63,1.36-1.48,2.12-2.13
	c1.22-1.04,2.82-0.67,3.56,0.82c0.38,0.77,0.59,1.62,0.95,2.4c0.61,1.3,1.15,2.66,1.94,3.83c2.43,3.57,6.58,4.71,10.57,3.01
	C197.17,418.27,198.71,417.55,200.22,416.88z M76.74,357.9c-4.95,6.21-8.59,13.88-10.42,21.49c-2.61,10.86-3.65,21.88-2.99,33.01
	c0.59,9.88,2.86,19.38,8.14,27.89c4.57,7.38,10.04,13.86,17.32,18.84c7.19,4.92,14.8,8.62,23.25,10.54
	c7.53,1.72,15.15,2.62,22.89,2.9c8.31,0.3,16.18-1.32,23.74-4.63c8.77-3.85,16.17-9.66,22.76-16.59c4.36-4.58,8.04-9.72,11.6-14.92
	c3.01-4.39,5.59-9.05,7.58-14.01c0.23-0.58,0.66-1.32-0.39-1.91c-0.89,0.55-1.84,1.17-2.82,1.73c-1.65,0.93-3.41,1.38-5.33,1.32
	c-4.47-0.15-7.92-2.11-10.38-5.85c-0.78-1.19-1.45-2.45-2.25-3.84c-0.97,0.53-1.82,0.99-2.68,1.44c-2.8,1.48-5.66,1.62-8.71,0.78
	c-3.42-0.95-5.72-3.19-7.43-6.11c-1.76-3.02-2.78-6.28-2.74-9.85c0.01-1.2,0.54-2.54-0.35-3.58c-2.28,0.2-4.39,0.58-6.49,0.54
	c-8.15-0.17-12.02-3.87-12.77-12c-0.07-0.77-0.23-1.53-0.38-2.44c-2.04,0.75-3.74,1.57-5.52,1.98c-7.74,1.81-12.83-1.22-15.38-7.97
	c-0.4-1.07-0.58-2.22-0.86-3.33c-0.17-0.65-0.34-1.31-0.58-2.26c-1.7,0.73-3.11,1.33-4.52,1.94c-3.21,1.4-6.51,1.99-10.03,1.45
	c-3.52-0.55-6.02-2.46-7.73-5.52c-1.29-2.31-1.79-4.83-1.71-7.48c0.04-1.53,0.05-3.05,0.09-5.41
	C86.68,359.14,81.88,359.79,76.74,357.9z M175.22,575.54c-0.01-0.29,0.07-0.61-0.03-0.84c-3.28-7.34-6.56-14.69-9.9-22.01
	c-0.39-0.85-1.07-1.57-1.41-2.04c-4.52,1.09-8.62,2.45-12.82,3.05c-15.52,2.22-31.03,1.02-46.51-0.68c-2.67-0.29-5.34-0.69-8.2-1.06
	c-0.94,1.83-1.81,3.46-2.62,5.12c-1.94,4.01-3.85,8.03-5.76,12.05c-0.8,1.69-1.65,3.36-2.37,5.08c-0.43,1.05-0.8,2.17,0.06,3.7
	c3.48,1.17,7.21,2.55,11.02,3.67c4.14,1.22,4.77,0.95,6.75-2.97c2.26-4.49,4.29-9.09,6.41-13.65c0.3-0.65,0.51-1.34,0.84-1.98
	c0.87-1.7,2.15-2.24,3.85-1.74c2.04,0.59,4.17,0.96,6.27,1.3c3.37,0.56,6.77,0.98,10.15,1.52c6.18,0.98,12.34,2.3,18.66,1.75
	c0.71-0.06,1.43,0.03,2.14,0.08c2.66,0.17,3.15,0.53,3.93,3.06c0.6,1.92,1.08,3.88,1.72,5.78c0.5,1.49,1.08,2.99,1.8,4.39
	c1.06,2.06,2.33,2.55,4.61,2.07C166.51,580.59,172.67,577.56,175.22,575.54z M94.66,530.36c2.01,1.8,4.35,1.84,6.57,2.12
	c9.61,1.22,19.22,2.39,28.83,3.51c11.44,1.33,22.68,0.65,33.6-3.32c-0.3-4.54-2.31-13.07-3.64-15.7c-3.23,0.54-6.42,1.31-9.64,1.54
	c-4.27,0.31-8.5,0.82-12.67,1.75c-2.96,0.66-5.93,0.67-8.92,0.56c-8.99-0.38-17.87-1.49-26.54-4.03c-1.77-0.52-3.55-0.98-5.73-0.69
	C95.66,520.84,94.66,525.57,94.66,530.36z M97.27,511.41c0.54,0.27,0.89,0.53,1.27,0.63c8.55,2.19,17.13,4.18,25.98,4.83
	c4.99,0.36,9.9,0.31,14.85-0.75c3.74-0.8,7.6-1.08,11.43-1.36c2.31-0.17,4.51-0.61,6.64-1.43c0.73-0.28,1.35-0.89,2.04-1.35
	c-0.96-3.78-1.5-7.45-2.91-10.87c-5.73,0.07-11.26,0.13-16.79,0.22c-0.85,0.02-1.7,0.16-2.54,0.31c-6.24,1.03-12.46,0.91-18.71,0.04
	c-6.32-0.89-12.66-1.6-19.42-2.44C98.24,503.3,97.55,507.32,97.27,511.41z M93.15,546.94c1.64,0.44,2.98,0.9,4.36,1.16
	c7.3,1.37,14.68,2.05,22.08,2.52c9.98,0.64,19.95,0.86,29.89-0.51c2.95-0.41,5.93-0.97,8.74-1.95c6.81-2.38,7.55-2.1,6.4-10.54
	c-0.01-0.12-0.16-0.23-0.39-0.51c-1.44-0.11-2.9,0.35-4.39,0.76c-5.81,1.59-11.76,2.47-17.75,2.38c-5.98-0.08-11.97-0.52-17.92-1.15
	c-8.22-0.87-16.41-2.04-24.61-3.11c-1.81-0.23-3.6-0.57-5.57-0.9C93.28,538.97,93.06,542.66,93.15,546.94z M246.19,431.23
	c-3.49,0.99-5.09,2.37-6.33,5.38c-0.33,0.78-0.53,1.64-0.95,2.37c-0.6,1.05-2.33,1.01-2.83-0.09c-0.39-0.9-0.51-1.92-0.83-2.86
	c-0.85-2.43-1.72-4.87-4.45-6.17c-0.52,0.55-1.09,0.99-1.43,1.57c-0.95,1.62-1.46,3.39-1.72,5.28c-1.04,7.44,2.08,13.72,5.26,20
	c0.19,0.38,0.51,0.69,0.79,1.01c2.59,3,5.78,5.01,9.55,6.23c2.18,0.7,3.88,0.47,5.38-1.41c-0.2-0.5-0.33-1.08-0.63-1.55
	c-0.54-0.85-1.22-1.6-1.75-2.44c-0.67-1.08-0.26-2.45,0.9-2.86c0.93-0.33,1.95-0.38,2.89-0.68c1.31-0.42,2.91-0.13,3.9-1.59
	c-0.28-1.29-1.42-1.68-2.42-2.12c-1.17-0.51-2.46-0.76-3.61-1.32c-0.56-0.27-1.12-0.93-1.29-1.54c-0.27-0.92,0.36-1.64,1.14-2.08
	c0.87-0.5,1.78-0.91,2.66-1.39c1.55-0.83,2.83-1.98,3.55-3.61c0.4-0.89,0.71-1.91-0.49-2.8c-0.71,0.14-1.58,0.22-2.36,0.51
	c-1.33,0.51-2.56,1.28-3.91,1.74c-0.57,0.2-1.44,0.13-1.96-0.17c-0.82-0.5-0.86-1.46-0.51-2.31c0.37-0.93,0.9-1.79,1.3-2.72
	C246.63,434.29,247.08,432.92,246.19,431.23z M21.41,397.02c-0.32,2.32-0.43,2.37,0.12,3.69c0.88,2.11,1.89,4.15,2.89,6.21
	c0.42,0.85,0.54,1.66-0.16,2.36c-0.67,0.67-1.47,0.74-2.34,0.29c-0.76-0.4-1.51-0.88-2.32-1.07c-1.23-0.3-2.51-0.51-3.77-0.54
	c-1.28-0.03-2.03,0.9-2.51,2.02c-0.48,1.1,0.02,1.98,0.77,2.69c0.61,0.58,1.36,1.02,2.06,1.5c0.47,0.31,1.01,0.53,1.41,0.9
	c0.85,0.78,0.42,2.55-0.7,2.8c-1.23,0.27-2.56,0.23-3.7,0.7c-0.63,0.25-1.21,1.24-1.33,1.97c-0.07,0.46,0.65,1.22,1.19,1.59
	c1.49,1.02,3.23,1.03,4.94,0.78c0.83-0.11,1.63-0.51,2.45-0.71c0.86-0.2,1.82-0.22,2.26,0.66c0.28,0.56,0.29,1.36,0.15,2
	c-0.15,0.67-0.67,1.27-0.91,1.93c-0.33,0.89-0.54,1.82-0.83,2.81c0.65,0.21,1.04,0.47,1.43,0.46c5.43-0.18,10.39-4.17,11.73-9.51
	c0.23-0.89,0.44-1.74,1.28-2.07c1.78-0.71,2.58-2.21,3.24-3.82c1.33-3.32,2.72-6.64,3.82-10.04c0.51-1.59,0.48-3.39,0.51-5.1
	c0.02-1.1-0.91-1.78-2.01-1.78c-3.2,0-6.14,2.49-6.57,5.65c-0.11,0.84,0.02,1.71,0,2.57c-0.02,0.93-0.33,1.71-1.35,1.89
	c-0.97,0.16-1.64-0.39-2.09-1.19c-0.43-0.74-0.69-1.57-1.13-2.32C27.96,400.98,24.63,398.15,21.41,397.02z M154.26,488.27
	c-1.62,0.17-3.17,0.23-4.68,0.54c-2.7,0.54-5.36,0.41-8.07,0.1c-2.25-0.25-4.54-0.31-6.8-0.29c-10.54,0.07-21.09,0.35-31.39-2.55
	c-0.61-0.17-1.31,0.01-2.12,0.02c-0.45,3.01-1.25,5.73-1.22,8.72c2.05,1.05,4.14,1.36,6.26,1.6c5.8,0.65,11.61,1.23,17.4,1.95
	c3.86,0.48,7.67,0.05,11.5-0.22c4.25-0.3,8.51-0.54,12.77-0.74c1.84-0.09,3.7,0.05,5.55-0.06c0.78-0.04,1.54-0.48,2.49-0.8
	C155.38,493.7,155.52,490.97,154.26,488.27z M153.5,484.06c-0.77-3.18-1.52-6.18-2.88-9.1c-15.86,2.87-31.22,0.71-46.51-3.4
	c-1.58,3.28-1.44,6.57-1.97,9.77c2.43,1.54,4.98,1.85,7.46,2.3c7.31,1.36,14.7,1.4,22.11,1.26c3.97-0.08,7.95,0.18,11.92,0.42
	C146.94,485.5,150.13,485.15,153.5,484.06z M59.43,393.25c0.28-0.32,0.53-0.51,0.64-0.75c0.17-0.39,0.28-0.82,0.34-1.24
	c0.94-7.44,2.45-14.74,5.12-21.78c1.36-3.61-0.75-7.31-4.44-8.49c-1.96-0.63-3.66-0.24-5.09,1.25c-1.52,1.6-2.42,3.54-3.02,5.64
	c-0.88,3.08-1.09,6.25-0.92,9.42c0.21,3.91,1.05,7.71,2.83,11.21C55.91,390.53,57.07,392.52,59.43,393.25z M38.65,594.72
	c-0.01,0.2-0.03,0.49-0.03,0.78c-0.05,2.02,0.64,3.71,2.45,4.7c1.8,0.98,3.55,0.71,5.23-0.46c3.78-2.65,6.4-6.11,7.45-10.69
	c0.32-1.4,0.56-2.82,0.92-4.22c0.34-1.33,0.26-2.54-0.49-3.72c-0.54-0.85-1-1.74-1.42-2.66c-0.63-1.36-1.69-1.83-3.1-1.8
	c-1.82,0.04-3.33,0.61-4.39,2.21c-2.69,4.11-4.81,8.49-6.16,13.23C38.88,592.91,38.81,593.78,38.65,594.72z M194.15,441.89
	c6.21-0.21,11.17-1.63,15.64-4.71c1.79-1.23,3.21-2.84,4.29-4.74c0.42-0.74,0.78-1.55,0.98-2.37c0.73-3.06-0.22-5.09-3.13-6.16
	c-2.26-0.84-4.63-1.24-7.2-1.03c-1.58,3.12-3.04,6.21-4.7,9.2C198.32,435.18,196.39,438.18,194.15,441.89z M211.84,587.2
	c-2.1,0.5-2.75,1.65-2.56,3.28c0.61,5.17,1.97,10.14,4.1,14.88c0.34,0.76,0.93,1.43,1.54,2.02c0.74,0.72,2.04,0.74,2.71-0.01
	c0.65-0.73,1.38-1.57,1.6-2.47c0.41-1.65,0.59-3.39,0.67-5.1c0.15-3.18-0.89-5.92-3.26-8.11
	C215.06,590.23,213.5,588.77,211.84,587.2z"/>
<path class="st7" d="M99.69,426.35c0.32-2.98,0.57-5.96,1.01-8.93c0.07-0.46,1.08-1.2,1.54-1.12c7.7,1.4,15.55,1.99,23.1,4.19
	c2.74,0.8,5.46,1.62,8.18,2.47c0.95,0.3,1.9,0.63,2.79,1.07c3.17,1.56,4.06,3.37,2.66,6.63c-1.94,4.47-3.97,8.94-6.44,13.12
	c-3.93,6.64-10.01,9.07-17.53,8.01c-6.21-0.87-12.46-6.59-14.02-13.02C99.97,434.72,99.55,430.57,99.69,426.35z M135.56,428.03
	c-0.73-0.4-1.3-0.84-1.95-1.07c-8.93-3.1-18.07-5.2-27.47-6.12c-1.4-0.14-2.13,0.42-2.27,1.94c-0.46,4.59-0.48,9.17,0.4,13.74
	c1.01,5.29,4.18,8.7,8.85,10.84c3.81,1.74,10.85,1.49,14.76-3.57c0.96-1.24,1.93-2.51,2.65-3.91c1.64-3.19,3.15-6.45,4.66-9.7
	C135.47,429.58,135.43,428.82,135.56,428.03z"/>
<path class="st20" d="M135.56,428.04c-0.13,0.79-0.09,1.54-0.38,2.15c-1.51,3.26-3.02,6.51-4.66,9.7c-0.72,1.39-1.69,2.66-2.65,3.91
	c-3.9,5.07-10.96,5.32-14.76,3.57c-4.67-2.15-7.84-5.55-8.85-10.84c-0.88-4.57-0.86-9.15-0.4-13.74c0.16-1.52,0.88-2.08,2.27-1.94
	c9.4,0.92,18.54,3.03,27.47,6.12C134.25,427.2,134.83,427.63,135.56,428.04z"/>
<path class="st7" d="M96.77,396.8c-0.14,3.93-2.88,7.01-6.25,7.29c-2.24,0.18-3.88-0.76-4.93-2.71c-1.42-2.61-0.49-7.65,1.77-9.59
	c1.76-1.51,3.85-1.92,6.02-1.16c1.92,0.66,2.88,2.26,3.19,4.24C96.67,395.58,96.72,396.31,96.77,396.8z"/>
<path class="st7" d="M152.23,419.26c0.36-2.98,3.08-4.88,6.26-4.39c3.01,0.47,5.26,3.82,4.78,7.11c-0.35,2.43-3.77,4.87-6.42,4.59
	C154.19,426.3,151.82,422.55,152.23,419.26z"/>
</svg>
