<?xml version="1.0" encoding="utf-8"?>
<!-- Generator: Adobe Illustrator 24.1.2, SVG Export Plug-In . SVG Version: 6.00 Build 0)  -->
<svg version="1.1" id="Camada_1" xmlns="http://www.w3.org/2000/svg" xmlns:xlink="http://www.w3.org/1999/xlink" x="0px" y="0px"
	 viewBox="0 0 240 120" style="enable-background:new 0 0 240 120;" xml:space="preserve">
<style type="text/css">
	.st0{fill:#EA5810;}
	.st1{fill:#FFFFFF;}
</style>
<g>
	<path class="st0" d="M32.59,20.32c-2.21-1.66-5.52-2.58-9.39-2.58c-3.13,0-6.08,0.74-8.65,2.39c-1.66,0.92-2.95,2.21-4.23,3.31
		V6.51c0-2.76-2.21-5.16-5.16-5.16S0,3.57,0,6.51v51.37c0,2.76,2.21,5.16,5.16,5.16s5.16-2.21,5.16-5.16V36.34
		c0-1.66,0.37-3.13,1.29-4.42c0.92-1.29,2.03-2.39,3.68-3.31c1.47-0.92,3.31-1.29,5.34-1.29c2.03-0.18,3.68,0.18,4.79,0.92
		c1.1,0.74,1.84,1.84,2.39,3.31s0.74,3.31,0.74,5.16v21.17c0,2.76,2.21,5.16,5.16,5.16c2.95,0,5.16-2.21,5.16-5.16V36.16
		c0-3.31-0.37-6.44-1.29-9.02C36.46,24.37,34.8,21.98,32.59,20.32z"/>
	<path class="st1" d="M65.55,63.77c3.5,0,6.63-0.92,9.21-2.39c1.66-1.1,3.13-2.21,4.23-3.31c0,2.76,2.39,4.97,5.16,4.97
		s5.16-2.21,5.16-5.16V23.82c0-2.76-2.21-5.16-5.16-5.16c-2.58,0-4.6,1.84-4.97,4.23c-1.1-1.1-2.58-2.03-4.05-2.95
		c-2.39-1.29-5.16-2.03-8.29-2.03c-4.05,0-7.92,0.92-11.05,2.95c-3.31,2.03-5.89,4.6-7.73,8.1c-1.84,3.5-2.76,7.36-2.76,11.78
		s0.92,8.47,2.76,11.97c1.84,3.5,4.23,6.26,7.36,8.1C58.37,62.85,61.86,63.77,65.55,63.77z M55.6,40.76c0-2.58,0.55-4.97,1.47-7
		c0.92-2.03,2.39-3.5,4.23-4.79c1.84-1.1,3.87-1.66,6.08-1.66c2.39,0,4.42,0.55,6.26,1.66c1.84,1.1,3.13,2.76,4.23,4.79
		c0.92,2.03,1.47,4.23,1.47,6.81c0,2.58-0.55,4.97-1.47,7c-0.92,2.03-2.39,3.68-4.23,4.79c-1.84,1.1-3.87,1.66-6.26,1.66
		c-2.21,0-4.23-0.55-6.08-1.66c-1.84-1.1-3.13-2.76-4.23-4.79C56.16,45.55,55.6,43.34,55.6,40.76z"/>
	<path class="st1" d="M104.21,80.71c2.76,0,5.16-2.21,5.16-5.16V58.62c1.29,1.1,2.76,2.03,4.42,2.95c2.58,1.29,5.52,2.03,8.65,2.03
		c3.87,0,7.36-0.92,10.49-2.95s5.52-4.79,7.36-8.1c1.84-3.5,2.76-7.36,2.76-11.78s-0.92-8.47-2.76-11.78
		c-1.84-3.5-4.23-6.08-7.36-8.1s-6.63-2.95-10.68-2.95c-3.13,0-6.08,0.74-8.65,2.21c-1.66,0.92-2.95,2.03-4.23,3.13
		c-0.18-2.58-2.39-4.6-5.16-4.6s-5.16,2.21-5.16,5.16v51.92C99.05,78.32,101.45,80.71,104.21,80.71z M109,40.76
		c0-2.58,0.55-4.97,1.47-6.81c1.1-2.03,2.39-3.5,4.23-4.6c1.84-1.1,3.87-1.66,6.26-1.66c2.39,0,4.42,0.55,6.26,1.66
		c1.84,1.1,3.13,2.76,4.23,4.6c1.1,2.03,1.47,4.23,1.47,6.81c0,2.58-0.55,4.79-1.47,6.81c-1.1,2.03-2.39,3.68-4.23,4.79
		c-1.84,1.1-3.87,1.66-6.26,1.66c-2.39,0-4.42-0.55-6.26-1.66c-1.84-1.1-3.31-2.76-4.23-4.79C109.55,45.55,109,43.34,109,40.76z"/>
	<path class="st1" d="M155.21,80.71c2.76,0,5.16-2.21,5.16-5.16V58.62c1.29,1.1,2.76,2.03,4.42,2.95c2.58,1.29,5.52,2.03,8.65,2.03
		c3.87,0,7.36-0.92,10.49-2.95s5.52-4.79,7.36-8.1c1.84-3.5,2.76-7.36,2.76-11.78s-0.92-8.47-2.76-11.78
		c-1.84-3.5-4.23-6.08-7.36-8.1s-6.63-2.95-10.68-2.95c-3.13,0-6.08,0.74-8.65,2.21c-1.66,0.92-2.95,2.03-4.23,3.13
		c-0.18-2.58-2.39-4.6-5.16-4.6s-5.16,2.21-5.16,5.16v51.92C149.87,78.32,152.26,80.71,155.21,80.71z M159.81,40.76
		c0-2.58,0.55-4.97,1.47-6.81c1.1-2.03,2.39-3.5,4.23-4.6c1.84-1.1,3.87-1.66,6.26-1.66c2.39,0,4.42,0.55,6.26,1.66
		c1.84,1.1,3.13,2.76,4.23,4.6c1.1,2.03,1.47,4.23,1.47,6.81c0,2.58-0.55,4.79-1.47,6.81c-1.1,2.03-2.39,3.68-4.23,4.79
		c-1.84,1.1-3.87,1.66-6.26,1.66c-2.39,0-4.42-0.55-6.26-1.66c-1.84-1.1-3.31-2.76-4.23-4.79
		C160.37,45.55,159.81,43.34,159.81,40.76z"/>
	<path class="st0" d="M211.37,59.36l0.92-1.29c0.92-1.29,1.84-2.39,2.76-3.68l2.95-5.16L206.4,21.8c-0.74-1.84-2.58-3.13-4.79-3.13
		h-0.37c-1.66,0-3.31,0.92-4.23,2.39c-0.92,1.47-1.1,3.31-0.37,4.79L211.37,59.36z"/>
	<path class="st0" d="M237.33,18.11l-0.92-0.18c-0.92,0-1.66,0-2.39,0.37c-1.47,0.74-2.58,2.21-2.76,4.05v4.05c0,1.1,0,2.58,0,3.68
		c0,0.37,0,0.74-0.18,1.1c-10.86,29.09-26.33,49.53-45.66,60.76l-0.74,0.37c-0.37,0.18-0.92,0.55-1.29,0.74l-0.74,0.37
		c-0.74,0.37-1.29,0.74-2.03,1.1c-12.7,6.44-31.12,9.39-43.64,9.39s-30.93-2.95-43.64-9.39c-11.23-5.71-21.36-14.55-30.2-26.14
		c-0.92-1.1-2.03-1.84-3.5-2.03c-1.47-0.18-2.76,0.18-3.87,1.1c-2.03,1.66-2.58,4.6-1.1,6.81c9.57,14.36,21.36,25.41,34.98,32.59
		c14.55,7.73,30.56,11.78,47.32,11.78c16.75,0,32.59-3.87,47.13-11.6c25.41-13.44,44-41.24,55.42-82.67
		C240.64,21.61,239.72,19.22,237.33,18.11z"/>
</g>
</svg>
